<svg width="232" height="193" viewBox="0 0 232 193" fill="none" xmlns="http://www.w3.org/2000/svg">
<path d="M36.2984 156.436C45.7267 156.436 185.045 156.597 188.968 156.436C191.132 156.347 200.587 151.049 214.398 140.02C221.964 133.978 245.828 91.5915 198.914 57.0999C180.562 43.6018 200.062 34.6977 185.471 19.6647C167.808 1.48802 148.59 23.8059 129.747 14.3558C95.7854 -3.61112 57.4342 -2.71164 37.9417 17.9934C35.5018 20.5795 26.3291 34.1147 26.3291 48.8102C26.3291 72.8275 13.9583 71.4811 5.74866 84.7479C-15.1294 118.483 26.8701 156.436 36.2984 156.436Z" fill="#E0EEFF"/>
<path d="M60.2031 145.55C50.4685 149.272 30.3351 158.383 25.4682 159.989C21.707 161.229 21.5964 164.388 23.1452 165.403C25.5757 166.996 29.5981 169.614 39.0746 173.638C48.6986 178.601 66.2209 162.222 70.3803 164.839C75.5794 168.11 79.5843 170.135 83.876 171.043C89.7389 172.284 80.1849 185.146 83.876 190.104C87.692 195.228 130.399 192.666 146.913 186.118C166.812 178.226 164.928 188.846 181.078 182.416C197.229 175.986 235.707 150.162 230.619 135.723C226.178 123.124 172.446 123.327 158.103 123.327C158.103 123.327 119.828 120.395 96.5973 130.096C73.3669 139.797 60.2031 145.55 60.2031 145.55Z" fill="#CBE2FF"/>
<path d="M99.7676 148.47L88.8978 142.201C85.9463 140.491 84.2161 137.234 84.501 133.835L88.7146 80.3611L66.4661 94.1417L62.4154 145.498C62.049 150.2 63.4943 154.272 67.5653 156.633L77.2749 162.231C80.9388 164.347 85.4374 164.347 89.081 162.231L99.7676 156.063C102.678 154.373 102.678 150.16 99.7676 148.47Z" fill="#8CA4DF"/>
<path d="M68.5419 93.3273L65.6922 91.3935L88.8566 78.02L91.7064 79.9538L68.5419 93.3273Z" fill="#B8C0D0"/>
<path d="M102.76 150.2L87.0459 141.122L69.5199 157.752L80.2675 163.961C83.9315 166.078 88.43 166.078 92.0736 163.961L102.76 157.793C105.671 156.103 105.671 151.89 102.76 150.2Z" fill="#8CA4DF"/>
<path d="M97.4062 151.89V157.793L104.938 153.987V151.89H97.4062Z" fill="#8CA4DF"/>
<path d="M102.76 148.084L91.8898 141.794C88.9382 140.084 87.208 136.827 87.493 133.428L91.7066 79.954L68.5421 93.3275L64.3286 146.801C64.0639 150.2 65.7738 153.478 68.7253 155.167L80.2668 161.823C83.9308 163.94 88.4293 163.94 92.073 161.823L102.76 155.656C105.67 153.987 105.67 149.773 102.76 148.084Z" fill="#B7CEF3"/>
<path d="M86.4748 71.2216L89.3246 73.1554C87.3908 71.8527 84.48 72.0155 81.0806 73.9696L78.2309 72.0359C81.6302 70.0817 84.5614 69.8985 86.4748 71.2216Z" fill="#B8C0D0"/>
<path d="M68.5419 93.3275L65.6922 91.3938C66.2214 84.3915 71.8395 75.7201 78.2311 72.0358L81.0809 73.9695C74.6893 77.6539 69.0712 86.3253 68.5419 93.3275Z" fill="#B8C0D0"/>
<path d="M81.0812 73.9696C87.4728 70.2852 92.236 72.9518 91.6864 79.954L68.5219 93.3276C69.0715 86.3253 74.6896 77.6539 81.0812 73.9696Z" fill="#B8C0D0"/>
<path d="M137.039 0.364385L140.479 2.35922C139.522 1.78926 138.178 1.87069 136.713 2.72561L133.273 0.730783C134.738 -0.124145 136.082 -0.205566 137.039 0.364385Z" fill="#F8FAFF"/>
<path d="M32.3511 151.157L28.9111 149.163C27.9544 148.593 27.364 147.432 27.364 145.763L30.8041 147.758C30.8245 149.427 31.4148 150.608 32.3511 151.157Z" fill="#F8FAFF"/>
<path d="M30.8042 147.758L27.3641 145.763L27.1606 68.0869L30.6006 70.0817L30.8042 147.758Z" fill="#F8FAFF"/>
<path d="M35.8926 60.9217L32.4526 58.9269L133.253 0.730835L136.713 2.72566L35.8926 60.9217Z" fill="#F8FAFF"/>
<path d="M30.6006 70.0816L27.1606 68.0868C27.1606 64.7282 29.5218 60.6164 32.453 58.9269L35.893 60.9217C32.9618 62.6316 30.6006 66.723 30.6006 70.0816Z" fill="#F8FAFF"/>
<path d="M136.714 2.72583C139.645 1.03633 142.026 2.40015 142.026 5.75879L142.23 83.4147C142.23 86.7733 139.869 90.8851 136.937 92.5746L36.1375 150.791C33.2063 152.481 30.8247 151.117 30.8247 147.758L30.6212 70.1022C30.6212 66.7436 32.9824 62.6318 35.9136 60.9423L136.714 2.72583Z" fill="#F8FAFF"/>
<path d="M140.48 2.35938L142.739 3.68248C141.782 3.11253 140.439 3.19395 138.973 4.04888L136.714 2.72578C138.179 1.87085 139.523 1.78943 140.48 2.35938Z" fill="#6F8AD0"/>
<path d="M34.6112 152.481L32.3518 151.158C31.3951 150.608 30.8047 149.427 30.8047 147.758L33.0642 149.081C33.0846 150.75 33.6749 151.911 34.6112 152.481Z" fill="#6F8AD0"/>
<path d="M33.0642 149.061L30.8048 147.758L30.6012 70.0819L32.8607 71.405L33.0642 149.061Z" fill="#6F8AD0"/>
<path d="M38.1527 62.245L35.8933 60.9219L136.714 2.72583L138.973 4.04893L38.1527 62.245Z" fill="#6F8AD0"/>
<path d="M32.8607 71.4049L30.6012 70.0818C30.6012 66.7232 32.9625 62.6114 35.8936 60.9219L38.1531 62.245C35.2219 63.9345 32.8607 68.0463 32.8607 71.4049Z" fill="#6F8AD0"/>
<path d="M138.973 4.04883C141.904 2.35933 144.286 3.72314 144.286 7.08179L144.49 84.7377C144.49 88.0963 142.128 92.2081 139.197 93.8976L38.3972 152.094C35.466 153.783 33.0844 152.419 33.0844 149.061L32.8809 71.4049C32.8809 68.0462 35.2421 63.9344 38.1733 62.2449L138.973 4.04883Z" fill="#A3BDF0"/>
<path d="M141.07 85.7145C141.07 86.7119 140.378 87.9129 139.523 88.4014L38.0713 147.473C37.2164 147.961 36.5039 147.575 36.5039 146.577L36.3411 86.3048L36.3004 69.6133C36.3004 68.6159 36.9925 67.415 37.8474 66.9264L78.6803 43.3549L139.299 7.85506C140.154 7.36653 140.866 7.75328 140.866 8.7507L141.009 64.1377L141.049 81.5823L141.07 85.7145Z" fill="#E1EAFC"/>
<g filter="url(#filter0_d_454_3637)">
<path d="M118.28 88.4385C118.28 89.1239 117.8 89.9692 117.206 90.3118L61.3856 123.395C60.7916 123.738 60.2891 123.463 60.2891 122.778L60.1748 80.7426L60.152 69.1143C60.152 67.752 60.1748 65.8119 62.8126 64.5051C74.7942 58.569 110.632 39.0214 117.16 35.3952C117.754 35.0525 118.257 35.3266 118.257 36.012V73.4063L118.28 85.56V88.4385Z" fill="#FBFDFF"/>
<path d="M115.813 86.6402C115.813 87.1489 115.456 87.7762 115.013 88.0306L65.2004 117.16C64.7579 117.415 64.3835 117.211 64.3835 116.703L64.4007 88.6836L64.3837 80.0531C64.3837 75.0806 71.2493 73.2439 74.9125 71.0983L114.996 48.8967C115.439 48.6424 115.813 48.8459 115.813 49.3545L115.796 75.4833L115.813 84.5038V86.6402Z" fill="#FBFDFF"/>
<path fill-rule="evenodd" clip-rule="evenodd" d="M113.535 86.2562L113.535 84.5081L113.518 75.4818L113.533 52.3107L76.0392 73.078C75.1378 73.6039 74.0776 74.1067 73.0818 74.5791C72.9536 74.6399 72.8265 74.7002 72.7009 74.76C71.54 75.3126 70.4427 75.8508 69.4751 76.4511C67.466 77.6976 66.6622 78.806 66.6614 80.0512C66.6614 80.0518 66.6614 80.0525 66.6614 80.0531L66.6784 88.685L66.6631 113.667L113.535 86.2562ZM65.2004 117.16C64.7579 117.415 64.3835 117.211 64.3835 116.703L64.4007 88.6836L64.3837 80.0531C64.3837 76.1865 68.5349 74.216 72.1038 72.522C73.1246 72.0374 74.0978 71.5755 74.9125 71.0983L114.996 48.8967C115.439 48.6424 115.813 48.8459 115.813 49.3545L115.796 75.4833L115.813 84.5038V86.6402C115.813 87.1489 115.456 87.7762 115.013 88.0306L65.2004 117.16Z" fill="#EDF4F9"/>
<path d="M69.2592 103.736C69.2592 102.333 70.5979 100.918 71.7841 100.268L108.835 79.1852C111.359 77.1661 111.359 80.3225 111.359 81.7254V85.7475C111.359 87.1505 110.466 87.2498 108.835 88.2878L71.7841 109.37C70.3897 109.37 69.2592 108.233 69.2592 106.83V103.736Z" fill="#FFECAF"/>
<path d="M67.7507 83.6919C67.7507 82.289 69.0893 80.8744 70.2756 80.2243L109.716 59.6405C112.241 57.6214 112.241 60.7778 112.241 62.1808V66.2028C112.241 67.6058 111.348 67.7051 109.716 68.7431L70.2756 89.3269C68.8811 89.3269 67.7507 88.1896 67.7507 86.7866V83.6919Z" fill="#E1EBFF"/>
<path d="M64.3996 69.8238C64.3996 69.1129 65.0849 68.3962 65.6922 68.0668L85.2967 57.6086C86.5893 56.5855 86.5893 58.1849 86.5893 58.8957V60.9337C86.5893 61.6446 86.1318 61.6949 85.2967 62.2209L65.6922 72.6791C64.9783 72.6791 64.3996 72.1028 64.3996 71.3919V69.8238Z" fill="#E1EBFF"/>
<path d="M99.9706 50.4429C99.9706 49.732 100.656 49.0153 101.263 48.6859L113.867 42.1845C115.159 41.1614 115.159 42.7608 115.159 43.4717V45.5097C115.159 46.2205 114.702 46.2708 113.867 46.7968L101.263 53.2982C100.549 53.2982 99.9706 52.7219 99.9706 52.011V50.4429Z" fill="#E1EBFF"/>
<path fill-rule="evenodd" clip-rule="evenodd" d="M94.1507 72.4151C94.438 72.9746 94.2173 73.6611 93.6578 73.9485L72.589 84.7676C72.0294 85.0549 71.343 84.8343 71.0556 84.2747C70.7683 83.7152 70.989 83.0287 71.5485 82.7414L92.6173 71.9223C93.1769 71.635 93.8634 71.8556 94.1507 72.4151Z" fill="#98B3D9" fill-opacity="0.5"/>
<path fill-rule="evenodd" clip-rule="evenodd" d="M103.247 87.477C103.55 88.0283 103.348 88.7207 102.797 89.0235L82.5821 100.127C82.0308 100.43 81.3385 100.229 81.0356 99.6775C80.7328 99.1262 80.9343 98.4338 81.4855 98.131L101.7 87.0271C102.252 86.7243 102.944 86.9257 103.247 87.477Z" fill="#F6D895"/>
</g>
<path d="M128.32 77.5644V44.3225M128.32 44.3225L121.887 56.9861M128.32 44.3225L134.155 51.4458" stroke="#A3BDF0" stroke-width="4" stroke-linecap="round"/>
<path d="M49.2002 120.304V85.4792M49.2002 85.4792L41.1566 100.957M49.2002 85.4792L56.1946 93.5699" stroke="#A3BDF0" stroke-width="4" stroke-linecap="round"/>
<path d="M172.171 143.98C177.713 142.798 180.997 142.816 192.113 136.088C200.72 130.901 199.196 124.185 199.196 124.185L132.107 117.786L172.171 143.98Z" fill="#FFECBA"/>
<path d="M199.3 124.619C199.3 124.619 199.3 149.286 199.3 161.785C191.794 169.779 180.282 174.095 171.576 177.576C171.576 174.275 171.398 139.136 171.398 139.136C182.804 135.943 192.664 129.555 199.3 124.619Z" fill="#FFDF95"/>
<path d="M171.398 177.576L132.108 152.313V117.786L171.398 139.602V177.576Z" fill="url(#paint0_linear_454_3637)"/>
<path d="M149.066 145.992L148.065 183.619C148.065 183.619 126.408 190.798 103.126 187.972C103.281 174.703 103.125 149.948 103.125 149.948C103.125 149.948 144.046 147.093 149.066 145.992Z" fill="url(#paint1_linear_454_3637)"/>
<path d="M110.027 124.133L103.125 149.948C103.125 149.948 113.622 150.594 125.737 149.39C137.852 148.186 149.065 145.992 149.065 145.992L110.027 124.133Z" fill="#FFECBA"/>
<defs>
<filter id="filter0_d_454_3637" x="48.152" y="28.2477" width="72.1277" height="102.295" filterUnits="userSpaceOnUse" color-interpolation-filters="sRGB">
<feFlood flood-opacity="0" result="BackgroundImageFix"/>
<feColorMatrix in="SourceAlpha" type="matrix" values="0 0 0 0 0 0 0 0 0 0 0 0 0 0 0 0 0 0 127 0" result="hardAlpha"/>
<feOffset dx="-5"/>
<feGaussianBlur stdDeviation="3.5"/>
<feComposite in2="hardAlpha" operator="out"/>
<feColorMatrix type="matrix" values="0 0 0 0 0.313941 0 0 0 0 0.480639 0 0 0 0 0.704167 0 0 0 0.1 0"/>
<feBlend mode="normal" in2="BackgroundImageFix" result="effect1_dropShadow_454_3637"/>
<feBlend mode="normal" in="SourceGraphic" in2="effect1_dropShadow_454_3637" result="shape"/>
</filter>
<linearGradient id="paint0_linear_454_3637" x1="171.494" y1="142.571" x2="135.707" y2="154.13" gradientUnits="userSpaceOnUse">
<stop stop-color="#F9D47D"/>
<stop offset="1" stop-color="#F2C55B"/>
</linearGradient>
<linearGradient id="paint1_linear_454_3637" x1="108.872" y1="151.144" x2="146.619" y2="187.312" gradientUnits="userSpaceOnUse">
<stop stop-color="#FFDA81"/>
<stop offset="1" stop-color="#FFDF95"/>
</linearGradient>
</defs>
</svg>
