<svg width="330" height="284" viewBox="0 0 330 284" fill="none" xmlns="http://www.w3.org/2000/svg">
<g clip-path="url(#clip0_446_3371)">
<path d="M117.375 243.807C126.199 257.322 119.831 293.142 194.157 281.821C274.633 264.08 320.036 232.971 300.475 213H61.5515C15.5532 213 20.4656 231.575 35.8728 238.003C51.28 244.43 97.9483 243.807 117.375 243.807Z" fill="#C0D3F1" fill-opacity="0.5"/>
<g style="mix-blend-mode:multiply">
<path d="M220.271 250.019L243 249.158L226.865 215H132L147.157 269L220.271 250.019Z" fill="#1750BE" fill-opacity="0.15"/>
</g>
<g filter="url(#filter0_dd_446_3371)">
<path d="M169.052 77.3113H34.0474C29.6291 77.3113 26.0474 80.893 26.0474 85.3113V191.351C26.0474 195.77 29.6291 199.351 34.0474 199.351H169.052C173.471 199.351 177.052 195.77 177.052 191.351V85.3113C177.052 80.893 173.471 77.3113 169.052 77.3113Z" fill="white"/>
</g>
<path d="M84.1708 86.1936H46.323C41.7372 86.1936 38.0197 89.9111 38.0197 94.4969V94.497C38.0197 99.0828 41.7372 102.8 46.323 102.8H84.1708C88.7566 102.8 92.4741 99.0828 92.4741 94.497V94.4969C92.4741 89.9111 88.7566 86.1936 84.1708 86.1936Z" fill="#DDEBFF"/>
<path d="M83.2054 92.373H46.13C45.0635 92.373 44.199 93.2376 44.199 94.3041C44.199 95.3705 45.0635 96.2351 46.13 96.2351H83.2054C84.2719 96.2351 85.1364 95.3705 85.1364 94.3041C85.1364 93.2376 84.2719 92.373 83.2054 92.373Z" fill="#9AB7DE"/>
<g filter="url(#filter1_ddd_446_3371)">
<path d="M157.08 113.228H46.0197C41.6014 113.228 38.0197 116.81 38.0197 121.228V180.151C38.0197 184.569 41.6014 188.151 46.0197 188.151H157.08C161.498 188.151 165.08 184.569 165.08 180.151V121.228C165.08 116.81 161.498 113.228 157.08 113.228Z" fill="white"/>
<path d="M157.08 114.728H46.0197C42.4299 114.728 39.5197 117.638 39.5197 121.228V180.151C39.5197 183.741 42.4299 186.651 46.0197 186.651H157.08C160.67 186.651 163.58 183.741 163.58 180.151V121.228C163.58 117.638 160.67 114.728 157.08 114.728Z" stroke="#EEF0FD" stroke-width="3"/>
</g>
<path d="M158.514 86.1936H143.838C140.212 86.1936 137.273 89.133 137.273 92.759V92.7591C137.273 96.3851 140.212 99.3245 143.838 99.3245H158.514C162.14 99.3245 165.08 96.3851 165.08 92.7591V92.759C165.08 89.133 162.14 86.1936 158.514 86.1936Z" fill="#ECEDF4"/>
<path d="M151 118H52C47.5817 118 44 121.582 44 126C44 130.418 47.5817 134 52 134H151C155.418 134 159 130.418 159 126C159 121.582 155.418 118 151 118Z" fill="#DDEBFF"/>
<path d="M151 164H52C47.5817 164 44 167.582 44 172C44 176.418 47.5817 180 52 180H151C155.418 180 159 176.418 159 172C159 167.582 155.418 164 151 164Z" fill="#FFEAB8"/>
<path d="M158.708 91.2146H143.646C142.686 91.2146 141.908 91.9927 141.908 92.9525C141.908 93.9123 142.686 94.6904 143.646 94.6904H158.708C159.668 94.6904 160.446 93.9123 160.446 92.9525C160.446 91.9927 159.668 91.2146 158.708 91.2146Z" fill="#B7BACE"/>
<path d="M97.24 159.66V175.728C97.24 177.33 98.5389 178.629 100.141 178.629C101.743 178.629 103.042 177.33 103.042 175.728V159.66C103.042 158.058 101.743 156.759 100.141 156.759C98.5389 156.759 97.24 158.058 97.24 159.66Z" fill="#E8C175"/>
<path d="M98.4313 157.371L90.4855 165.317C89.4076 166.394 89.4076 168.142 90.4855 169.22L90.4855 169.22C91.5633 170.297 93.3107 170.297 94.3886 169.22L102.334 161.274C103.412 160.196 103.412 158.448 102.334 157.371L102.334 157.371C101.257 156.293 99.5092 156.293 98.4313 157.371Z" fill="#E8C175"/>
<path d="M102.36 157.362L110.323 165.325C111.396 166.398 111.396 168.138 110.323 169.211L110.323 169.211C109.25 170.284 107.51 170.284 106.437 169.211L98.4741 161.248C97.4011 160.175 97.4011 158.435 98.4741 157.362C99.5471 156.289 101.287 156.289 102.36 157.362Z" fill="#E8C175"/>
<path d="M78.8557 77H68L68.2215 155.191C68 158.104 69.9939 160.344 72.2093 160.344C74.5202 160.344 112.604 160.867 131.583 160.344V200H177V152.279L78.8557 77Z" fill="#9FB6CC" fill-opacity="0.21"/>
<g filter="url(#filter2_dd_446_3371)">
<path d="M218.595 30H83.5903C79.172 30 75.5903 33.5817 75.5903 38V144.04C75.5903 148.458 79.172 152.04 83.5903 152.04H218.595C223.014 152.04 226.595 148.458 226.595 144.04V38C226.595 33.5817 223.014 30 218.595 30Z" fill="white"/>
</g>
<path d="M133.714 38.8821H95.8659C91.2801 38.8821 87.5626 42.5996 87.5626 47.1854V47.1855C87.5626 51.7713 91.2801 55.4888 95.8659 55.4888H133.714C138.299 55.4888 142.017 51.7713 142.017 47.1855V47.1854C142.017 42.5996 138.299 38.8821 133.714 38.8821Z" fill="#DDEBFF"/>
<path d="M132.748 45.0618H95.6729C94.6064 45.0618 93.7419 45.9263 93.7419 46.9928C93.7419 48.0592 94.6064 48.9238 95.6729 48.9238H132.748C133.815 48.9238 134.679 48.0592 134.679 46.9928C134.679 45.9263 133.815 45.0618 132.748 45.0618Z" fill="#9AB7DE"/>
<g filter="url(#filter3_ddd_446_3371)">
<path d="M206.623 65.9172H95.5626C91.1443 65.9172 87.5626 69.499 87.5626 73.9172V132.84C87.5626 137.259 91.1443 140.84 95.5626 140.84H206.623C211.041 140.84 214.623 137.259 214.623 132.84V73.9172C214.623 69.499 211.041 65.9172 206.623 65.9172Z" fill="white"/>
<path d="M206.623 67.4172H95.5626C91.9727 67.4172 89.0626 70.3274 89.0626 73.9172V132.84C89.0626 136.43 91.9727 139.34 95.5626 139.34H206.623C210.212 139.34 213.123 136.43 213.123 132.84V73.9172C213.123 70.3274 210.212 67.4172 206.623 67.4172Z" stroke="#EEF0FD" stroke-width="3"/>
</g>
<path d="M208.057 38.8821H193.381C189.755 38.8821 186.816 41.8215 186.816 45.4475V45.4476C186.816 49.0735 189.755 52.013 193.381 52.013H208.057C211.683 52.013 214.622 49.0735 214.622 45.4476V45.4475C214.622 41.8215 211.683 38.8821 208.057 38.8821Z" fill="#DDEBFF"/>
<path d="M200 71H102C97.5817 71 94 74.5817 94 79C94 83.4183 97.5817 87 102 87H200C204.418 87 208 83.4183 208 79C208 74.5817 204.418 71 200 71Z" fill="#DDEBFF"/>
<path d="M200 117H102C97.5817 117 94 120.582 94 125C94 129.418 97.5817 133 102 133H200C204.418 133 208 129.418 208 125C208 120.582 204.418 117 200 117Z" fill="#FFEAB8"/>
<path d="M208.251 43.9031H193.189C192.229 43.9031 191.451 44.6812 191.451 45.641C191.451 46.6008 192.229 47.3789 193.189 47.3789H208.251C209.211 47.3789 209.989 46.6008 209.989 45.641C209.989 44.6812 209.211 43.9031 208.251 43.9031Z" fill="#9AB7DE"/>
<path fill-rule="evenodd" clip-rule="evenodd" d="M145.975 129.69C146.041 129.77 146.111 129.848 146.186 129.923C147.383 131.12 149.324 131.12 150.521 129.923L166.211 114.234C167.408 113.037 167.408 111.096 166.211 109.899C165.014 108.702 163.073 108.702 161.876 109.899L148.537 123.237L142.625 117.325C141.38 116.081 139.362 116.081 138.118 117.325C136.873 118.57 136.873 120.588 138.118 121.833L145.975 129.69Z" fill="#E8C175"/>
<path d="M245.059 190C254.444 188.03 260.006 188.059 278.83 176.843C293.405 168.196 290.823 157 290.823 157H177L245.059 190Z" fill="#FFECBA"/>
<path d="M291 157C291 157 291 197.948 291 219.078C278.726 236.574 258.964 242.115 244.299 248C244.299 242.42 244 183.015 244 183.015C262.794 180.295 279.371 168.934 291 157Z" fill="#FFD87A"/>
<path d="M244 248L177 204.986V157L244 183.344V248Z" fill="#EFC664"/>
<path d="M148.25 268L143 217.939V165L150 204.977L148.25 268Z" fill="#EFC664"/>
<path d="M228.177 198.395L226.468 261.134C226.468 261.134 187.76 273.277 147.999 268.452C148.264 245.792 148.407 239.261 149.723 205.15C175.278 206.699 219.605 200.274 228.177 198.395Z" fill="#FFD87A"/>
<path d="M143.544 164.518L149.723 205.15C149.723 205.15 167.65 206.254 188.338 204.198C209.027 202.141 228.177 198.395 228.177 198.395L143.544 164.518Z" fill="#FFECBA"/>
<path d="M177 74C177 65.7157 183.716 59 192 59H211C219.284 59 226 65.7157 226 74V119H192C183.716 119 177 112.284 177 104V74Z" fill="#9FB6CC" fill-opacity="0.32"/>
<path d="M329.681 109.001H192.093C189.129 109.001 186.727 106.795 186.727 104.074V54.1197C186.727 51.3979 189.129 49.1924 192.093 49.1924H329.681C332.645 49.1924 313.98 79.0967 313.98 79.0967C313.98 79.0967 332.645 109.001 329.681 109.001Z" fill="url(#paint0_linear_446_3371)"/>
<path d="M217.813 80.9976H210.67V88.0072H206.351V80.9976H199.207V76.9921H206.351V69.9824H210.67V76.9921H217.813V80.9976Z" fill="white"/>
<path fill-rule="evenodd" clip-rule="evenodd" d="M278.56 72.4244C279.848 72.4244 280.891 71.3311 280.891 69.9823C280.891 68.6336 279.848 67.5403 278.56 67.5403C277.273 67.5403 276.229 68.6336 276.229 69.9823C276.229 71.3311 277.273 72.4244 278.56 72.4244ZM278.56 76.3782C281.932 76.3782 284.666 73.5147 284.666 69.9823C284.666 66.45 281.932 63.5864 278.56 63.5864C275.189 63.5864 272.455 66.45 272.455 69.9823C272.455 73.5147 275.189 76.3782 278.56 76.3782Z" fill="white"/>
<path fill-rule="evenodd" clip-rule="evenodd" d="M299.187 65.2154L278.431 94.0708L275.315 91.8294L296.071 62.9741L299.187 65.2154Z" fill="white"/>
<path fill-rule="evenodd" clip-rule="evenodd" d="M296.294 89.2864C297.642 89.2864 298.736 88.1931 298.736 86.8444C298.736 85.4957 297.642 84.4023 296.294 84.4023C294.945 84.4023 293.852 85.4957 293.852 86.8444C293.852 88.1931 294.945 89.2864 296.294 89.2864ZM296.294 93.2403C299.826 93.2403 302.69 90.3767 302.69 86.8444C302.69 83.312 299.826 80.4485 296.294 80.4485C292.761 80.4485 289.898 83.312 289.898 86.8444C289.898 90.3767 292.761 93.2403 296.294 93.2403Z" fill="white"/>
<path d="M241.448 88.3122V93.5193H223V88.3122H229.411V70.6878H223.511V65.4807H235.823V88.3122H241.448Z" fill="white"/>
<path d="M254.003 94C251.669 94 249.598 93.4259 247.788 92.2776C245.979 91.1027 244.563 89.4203 243.54 87.2307C242.544 85.041 242.045 82.4641 242.045 79.5C242.045 76.5359 242.544 73.959 243.54 71.7693C244.563 69.5796 245.979 67.9107 247.788 66.7624C249.598 65.5875 251.669 65 254.003 65C256.337 65 258.408 65.5875 260.218 66.7624C262.027 67.9107 263.443 69.5796 264.466 71.7693C265.489 73.959 266 76.5359 266 79.5C266 82.4641 265.489 85.041 264.466 87.2307C263.443 89.4203 262.027 91.1027 260.218 92.2776C258.408 93.4259 256.337 94 254.003 94ZM254.003 88.5124C255.708 88.5124 257.058 87.7647 258.054 86.2693C259.051 84.7739 259.549 82.5175 259.549 79.5C259.549 76.4825 259.051 74.2261 258.054 72.7307C257.058 71.2353 255.708 70.4876 254.003 70.4876C252.299 70.4876 250.948 71.2353 249.952 72.7307C248.955 74.2261 248.457 76.4825 248.457 79.5C248.457 82.5175 248.955 84.7739 249.952 86.2693C250.948 87.7647 252.299 88.5124 254.003 88.5124Z" fill="white"/>
</g>
<defs>
<filter id="filter0_dd_446_3371" x="0.0473938" y="53.3113" width="193.005" height="164.04" filterUnits="userSpaceOnUse" color-interpolation-filters="sRGB">
<feFlood flood-opacity="0" result="BackgroundImageFix"/>
<feColorMatrix in="SourceAlpha" type="matrix" values="0 0 0 0 0 0 0 0 0 0 0 0 0 0 0 0 0 0 127 0" result="hardAlpha"/>
<feOffset dx="-2"/>
<feGaussianBlur stdDeviation="3"/>
<feColorMatrix type="matrix" values="0 0 0 0 0 0 0 0 0 0 0 0 0 0 0 0 0 0 0.04 0"/>
<feBlend mode="normal" in2="BackgroundImageFix" result="effect1_dropShadow_446_3371"/>
<feColorMatrix in="SourceAlpha" type="matrix" values="0 0 0 0 0 0 0 0 0 0 0 0 0 0 0 0 0 0 127 0" result="hardAlpha"/>
<feOffset dx="-5" dy="-3"/>
<feGaussianBlur stdDeviation="10.5"/>
<feColorMatrix type="matrix" values="0 0 0 0 0 0 0 0 0 0 0 0 0 0 0 0 0 0 0.05 0"/>
<feBlend mode="normal" in2="effect1_dropShadow_446_3371" result="effect2_dropShadow_446_3371"/>
<feBlend mode="normal" in="SourceGraphic" in2="effect2_dropShadow_446_3371" result="shape"/>
</filter>
<filter id="filter1_ddd_446_3371" x="18.0197" y="103.228" width="167.06" height="114.923" filterUnits="userSpaceOnUse" color-interpolation-filters="sRGB">
<feFlood flood-opacity="0" result="BackgroundImageFix"/>
<feColorMatrix in="SourceAlpha" type="matrix" values="0 0 0 0 0 0 0 0 0 0 0 0 0 0 0 0 0 0 127 0" result="hardAlpha"/>
<feOffset/>
<feGaussianBlur stdDeviation="0.5"/>
<feColorMatrix type="matrix" values="0 0 0 0 0 0 0 0 0 0 0 0 0 0 0 0 0 0 0.04 0"/>
<feBlend mode="normal" in2="BackgroundImageFix" result="effect1_dropShadow_446_3371"/>
<feColorMatrix in="SourceAlpha" type="matrix" values="0 0 0 0 0 0 0 0 0 0 0 0 0 0 0 0 0 0 127 0" result="hardAlpha"/>
<feOffset dy="2"/>
<feGaussianBlur stdDeviation="3"/>
<feColorMatrix type="matrix" values="0 0 0 0 0 0 0 0 0 0 0 0 0 0 0 0 0 0 0.04 0"/>
<feBlend mode="normal" in2="effect1_dropShadow_446_3371" result="effect2_dropShadow_446_3371"/>
<feColorMatrix in="SourceAlpha" type="matrix" values="0 0 0 0 0 0 0 0 0 0 0 0 0 0 0 0 0 0 127 0" result="hardAlpha"/>
<feOffset dy="10"/>
<feGaussianBlur stdDeviation="10"/>
<feColorMatrix type="matrix" values="0 0 0 0 0 0 0 0 0 0 0 0 0 0 0 0 0 0 0.04 0"/>
<feBlend mode="normal" in2="effect2_dropShadow_446_3371" result="effect3_dropShadow_446_3371"/>
<feBlend mode="normal" in="SourceGraphic" in2="effect3_dropShadow_446_3371" result="shape"/>
</filter>
<filter id="filter2_dd_446_3371" x="67.5903" y="0" width="199.005" height="170.04" filterUnits="userSpaceOnUse" color-interpolation-filters="sRGB">
<feFlood flood-opacity="0" result="BackgroundImageFix"/>
<feColorMatrix in="SourceAlpha" type="matrix" values="0 0 0 0 0 0 0 0 0 0 0 0 0 0 0 0 0 0 127 0" result="hardAlpha"/>
<feOffset dx="-2"/>
<feGaussianBlur stdDeviation="3"/>
<feColorMatrix type="matrix" values="0 0 0 0 0 0 0 0 0 0 0 0 0 0 0 0 0 0 0.04 0"/>
<feBlend mode="normal" in2="BackgroundImageFix" result="effect1_dropShadow_446_3371"/>
<feColorMatrix in="SourceAlpha" type="matrix" values="0 0 0 0 0 0 0 0 0 0 0 0 0 0 0 0 0 0 127 0" result="hardAlpha"/>
<feOffset dx="16" dy="-6"/>
<feGaussianBlur stdDeviation="12"/>
<feColorMatrix type="matrix" values="0 0 0 0 0 0 0 0 0 0 0 0 0 0 0 0 0 0 0.05 0"/>
<feBlend mode="normal" in2="effect1_dropShadow_446_3371" result="effect2_dropShadow_446_3371"/>
<feBlend mode="normal" in="SourceGraphic" in2="effect2_dropShadow_446_3371" result="shape"/>
</filter>
<filter id="filter3_ddd_446_3371" x="67.5626" y="55.9172" width="167.06" height="114.923" filterUnits="userSpaceOnUse" color-interpolation-filters="sRGB">
<feFlood flood-opacity="0" result="BackgroundImageFix"/>
<feColorMatrix in="SourceAlpha" type="matrix" values="0 0 0 0 0 0 0 0 0 0 0 0 0 0 0 0 0 0 127 0" result="hardAlpha"/>
<feOffset/>
<feGaussianBlur stdDeviation="0.5"/>
<feColorMatrix type="matrix" values="0 0 0 0 0 0 0 0 0 0 0 0 0 0 0 0 0 0 0.04 0"/>
<feBlend mode="normal" in2="BackgroundImageFix" result="effect1_dropShadow_446_3371"/>
<feColorMatrix in="SourceAlpha" type="matrix" values="0 0 0 0 0 0 0 0 0 0 0 0 0 0 0 0 0 0 127 0" result="hardAlpha"/>
<feOffset dy="2"/>
<feGaussianBlur stdDeviation="3"/>
<feColorMatrix type="matrix" values="0 0 0 0 0 0 0 0 0 0 0 0 0 0 0 0 0 0 0.04 0"/>
<feBlend mode="normal" in2="effect1_dropShadow_446_3371" result="effect2_dropShadow_446_3371"/>
<feColorMatrix in="SourceAlpha" type="matrix" values="0 0 0 0 0 0 0 0 0 0 0 0 0 0 0 0 0 0 127 0" result="hardAlpha"/>
<feOffset dy="10"/>
<feGaussianBlur stdDeviation="10"/>
<feColorMatrix type="matrix" values="0 0 0 0 0 0 0 0 0 0 0 0 0 0 0 0 0 0 0.04 0"/>
<feBlend mode="normal" in2="effect2_dropShadow_446_3371" result="effect3_dropShadow_446_3371"/>
<feBlend mode="normal" in="SourceGraphic" in2="effect3_dropShadow_446_3371" result="shape"/>
</filter>
<linearGradient id="paint0_linear_446_3371" x1="187.181" y1="109.001" x2="317.33" y2="67.5835" gradientUnits="userSpaceOnUse">
<stop stop-color="#9E91F1"/>
<stop offset="1" stop-color="#4C7EF2"/>
</linearGradient>
<clipPath id="clip0_446_3371">
<rect width="330" height="284" fill="white"/>
</clipPath>
</defs>
</svg>
