<svg width="390" height="279" viewBox="0 0 390 279" fill="none" xmlns="http://www.w3.org/2000/svg">
<ellipse cx="175.678" cy="269.452" rx="173.975" ry="9.53681" fill="url(#paint0_linear_127_3529)"/>
<g opacity="0.38" clip-path="url(#clip0_127_3529)">
<path d="M337.77 90.1357C337.77 90.3587 337.77 90.656 337.77 90.8789C337.027 122.464 332.497 146.914 326.035 165.79L309.249 175.08L322.692 173.742L323.064 173.668C314.745 194.328 303.976 207.408 294.023 215.731C287.858 220.859 281.991 224.129 277.163 226.21C276.866 226.359 276.569 226.507 276.197 226.582C275.455 226.879 274.712 227.176 273.969 227.473H265.131C265.056 227.028 264.908 226.656 264.834 226.21C264.759 225.987 264.685 225.69 264.685 225.467C264.611 225.095 264.536 224.798 264.462 224.426C255.995 183.106 271.072 151.299 289.641 129.078C289.715 129.004 289.789 128.929 289.789 128.855C296.251 121.126 303.159 114.586 309.695 109.161L313.111 119.417L314.448 105.371C325.738 96.6013 334.948 91.6221 337.25 90.5073C337.547 90.2101 337.77 90.1357 337.77 90.1357Z" fill="#CFD8EC"/>
<path d="M338.067 90.3586L337.696 90.9532L317.345 128.409L316.973 129.078L311.403 139.334L311.254 139.631L293.503 172.256V172.33L264.685 225.467L264.239 226.21L263.497 227.473H262.754L263.422 226.21L264.462 224.426L292.909 171.959L293.429 170.993L337.176 90.433L337.473 89.9871L338.067 90.3586Z" fill="white"/>
<path d="M334.737 124.999L311.122 139.491L311.432 139.998L335.047 125.506L334.737 124.999Z" fill="white"/>
<path d="M335.269 117.435L316.783 128.78L317.093 129.287L335.58 117.942L335.269 117.435Z" fill="white"/>
<path d="M290.201 128.823L289.609 128.869L292.947 172.366L293.54 172.321L290.201 128.823Z" fill="white"/>
<path d="M261.12 234.311C261.12 234.311 281.768 245.458 312.888 229.034L303.381 223.906L319.276 225.392C331.457 217.738 345.049 205.921 359.458 187.714L355.818 185.782L360.646 186.227C363.097 183.106 365.548 179.836 367.999 176.343C367.999 176.343 359.161 175.08 346.46 175.897L339.478 184.37L341.781 176.269C315.711 178.721 277.311 190.315 261.12 234.311Z" fill="#BCC8E2"/>
<path d="M367.88 175.941L259.522 231.927L259.828 232.522L368.187 176.535L367.88 175.941Z" fill="white"/>
<path d="M339.84 190.777L339.748 191.365L354.718 193.705L354.81 193.118L339.84 190.777Z" fill="white"/>
<path d="M332.429 194.493L332.294 195.072L349.657 199.114L349.791 198.535L332.429 194.493Z" fill="white"/>
<path d="M287.933 196.929L287.413 196.335C296.623 188.977 307.689 183.403 320.316 179.836L320.539 180.579C308.061 184.072 297.068 189.572 287.933 196.929Z" fill="#2E4882"/>
</g>
<g opacity="0.38" clip-path="url(#clip1_127_3529)">
<path d="M38.8467 87.0366C38.8483 87.2146 38.8505 87.452 38.8522 87.63C39.6789 112.843 43.4772 132.331 48.7762 147.355L62.2472 154.648L51.5036 153.679L51.2065 153.622C58.0012 170.057 66.6968 180.42 74.7049 186.992C79.6649 191.041 84.3739 193.608 88.244 195.234C88.4823 195.351 88.7206 195.467 89.0177 195.524C89.6129 195.755 90.2081 195.987 90.8033 196.219L97.8603 196.154C97.9163 195.797 98.0321 195.499 98.0881 195.143C98.1458 194.964 98.2029 194.726 98.2012 194.548C98.2578 194.251 98.3149 194.013 98.3714 193.716C104.826 160.662 92.5525 135.377 77.5626 117.773C77.5027 117.714 77.4429 117.655 77.4423 117.596C72.2258 111.473 66.6624 106.302 61.4036 102.019L58.7516 110.233L57.5803 99.0281C48.5015 92.1099 41.1112 88.2024 39.2646 87.3294C39.0251 87.0943 38.8467 87.0366 38.8467 87.0366Z" fill="#CFD8EC"/>
<path d="M38.6111 87.2167L38.912 87.6887L55.4379 117.444L55.7393 117.975L60.2629 126.122L60.3837 126.359L74.7983 152.276L74.7988 152.336L98.2012 194.548L98.5625 195.138L99.1649 196.142L99.7579 196.136L99.2148 195.132L98.3714 193.716L75.2705 152.035L74.8482 151.267L39.3233 87.2695L39.0827 86.9156L38.6111 87.2167Z" fill="white"/>
<path d="M41.5266 114.85L60.4886 126.246L60.2444 126.653L41.2823 115.257L41.5266 114.85Z" fill="white"/>
<path d="M41.0453 108.815L55.8896 117.736L55.6453 118.143L40.801 109.222L41.0453 108.815Z" fill="white"/>
<path d="M77.1131 117.574L77.5865 117.606L75.2429 152.36L74.7695 152.328L77.1131 117.574Z" fill="white"/>
<path d="M101.113 201.583C101.113 201.583 84.7097 210.636 59.7406 197.753L67.2934 193.589L54.6137 194.893C44.8315 188.871 33.8918 179.537 22.2525 165.106L25.144 163.537L21.2927 163.928C19.3126 161.454 17.3314 158.862 15.3486 156.091C15.3486 156.091 22.3962 155.017 32.5429 155.576L38.18 162.288L36.2817 155.838C57.1149 157.603 87.8598 166.575 101.113 201.583Z" fill="#BCC8E2"/>
<path d="M15.4407 155.768L102.372 199.668L102.131 200.145L15.2003 156.245L15.4407 155.768Z" fill="white"/>
<path d="M37.9387 167.407L38.0163 167.875L26.0812 169.855L26.0036 169.387L37.9387 167.407Z" fill="white"/>
<path d="M43.8831 170.319L43.9949 170.781L30.1624 174.136L30.0506 173.675L43.8831 170.319Z" fill="white"/>
<path d="M79.4286 171.935L79.8393 171.456C72.4314 165.65 63.5542 161.282 53.4464 158.527L53.274 159.122C63.2626 161.819 72.08 166.128 79.4286 171.935Z" fill="#93A2C5"/>
</g>
<path d="M94.2338 169.136L150.142 201.914L102.085 235.028L68.4488 210.949C62.2071 206.481 60.3457 198.022 64.1354 191.347L73.6027 174.67C77.7331 167.395 87.0167 164.905 94.2338 169.136Z" fill="#87D3BA"/>
<path d="M78.7498 175.644L138.3 190.248L96.2498 239.042L66.2523 221.009C61.434 218.112 58.6398 212.764 59.0139 207.155L60.2103 189.214C60.8306 179.912 69.6958 173.423 78.7498 175.644Z" fill="#A8E6D1"/>
<path opacity="0.6" d="M277.049 14.0354L269.683 13.6934H269.499C268.605 13.6671 267.816 14.2985 267.684 15.1666L266.737 21.2436C266.711 21.3488 266.711 21.454 266.658 21.5329C266.421 22.1643 265.843 22.6641 265.159 22.6904C261.081 23.0324 257.109 24.1636 253.478 26.0578C253.32 26.1367 253.163 26.1893 253.005 26.2156C252.4 26.3208 251.768 26.1104 251.347 25.6632L248.006 21.796C247.559 21.2962 246.849 21.0857 246.218 21.2699C246.033 21.3225 245.823 21.4014 245.665 21.5329L239.483 25.8473C238.72 26.3734 238.483 27.4257 238.957 28.2149L242.377 34.134C242.719 34.7128 242.692 35.4494 242.298 36.0018C241.745 36.8174 241.245 37.6329 240.772 38.501C239.878 40.1321 239.167 41.7894 238.588 43.4731C238.352 44.1833 237.72 44.6569 236.984 44.6832L230.039 44.9726L229.697 44.9989C228.802 45.0252 228.066 45.7355 228.039 46.6562L227.697 54.18C227.671 55.1008 228.302 55.9163 229.223 56.0479L235.984 57.1001C236.747 57.2054 237.326 57.8104 237.457 58.547C238.01 61.6776 239.036 64.7292 240.535 67.5441C240.903 68.2543 240.746 69.1488 240.114 69.6749L235.537 73.6999C234.853 74.305 234.721 75.331 235.247 76.0939L239.588 82.3023C240.114 83.0389 241.088 83.2494 241.851 82.8022L248.796 78.7772C249.374 78.4352 250.111 78.4615 250.69 78.8298C251.4 79.3033 252.11 79.7242 252.873 80.1452C254.294 80.9344 255.741 81.5657 257.188 82.1182C257.845 82.3549 258.319 82.96 258.345 83.6703L258.661 92.0097C258.713 92.9304 259.424 93.667 260.344 93.6933L267.895 94.0353C268.684 94.0616 269.42 93.5355 269.657 92.7989C269.683 92.72 269.71 92.641 269.71 92.5621L270.894 85.0383C270.999 84.328 271.499 83.7755 272.183 83.5914C272.235 83.5651 272.314 83.5651 272.367 83.5388C272.551 83.5125 272.735 83.4862 272.919 83.4335C275.076 83.0652 277.181 82.4602 279.233 81.6447C279.917 81.3553 280.706 81.5657 281.18 82.1182L285.415 86.9587C286.02 87.6427 287.046 87.7742 287.783 87.2481L289.151 86.301L293.939 82.9337C294.702 82.4076 294.912 81.4079 294.465 80.5924L291.071 74.7785C290.703 74.1471 290.782 73.3842 291.229 72.8318C292.439 71.3849 293.518 69.7802 294.465 68.0439C295.175 66.7548 295.78 65.4395 296.28 64.1241L297.727 64.0715L303.699 63.8347C304.435 63.8084 305.066 63.3086 305.277 62.6246C305.33 62.4931 305.356 62.3352 305.356 62.1774L305.724 54.601C305.751 53.7065 305.119 52.9173 304.225 52.7858L299.595 52.0755C298.805 51.9439 298.2 51.3126 298.121 50.5234C297.806 47.2613 296.99 44.0781 295.701 41.0791C295.386 40.3688 295.57 39.5533 296.148 39.0798L301.936 34.0025C302.567 33.4237 302.699 32.4767 302.199 31.7664L297.806 25.5053C297.28 24.7687 296.28 24.5319 295.517 25.0055L288.283 29.1883C287.651 29.5566 286.888 29.504 286.31 29.0568C285.099 28.1097 283.758 27.2416 282.363 26.4787C281.601 26.0578 280.838 25.6895 280.075 25.3212C279.47 25.0581 279.075 24.453 279.022 23.7953L278.707 15.798C278.707 14.8246 277.97 14.088 277.049 14.0354ZM254.162 43.6835C255.346 42.0262 256.846 40.474 258.74 39.1324C259.134 38.843 259.608 38.5799 260.134 38.3169C262.37 37.212 265.395 36.4754 267.553 36.5806C284.152 37.4487 290.071 57.1527 276.997 67.0179C276.786 67.1758 276.55 67.3336 276.339 67.4914C274.261 68.9646 270.42 70.0432 267.895 69.938C266.553 69.8854 265.29 69.7012 264.106 69.4382C252.189 66.597 247.48 53.1804 254.162 43.6835Z" fill="white"/>
<rect x="63.9492" y="199.734" width="44.7356" height="9.17653" fill="#FFD87A"/>
<rect x="63.9492" y="199.734" width="44.7356" height="9.17653" fill="url(#paint1_linear_127_3529)"/>
<rect x="66.2433" y="189.984" width="44.7356" height="9.75006" fill="#FFD87A"/>
<rect x="66.2433" y="189.984" width="44.7356" height="9.75006" fill="url(#paint2_linear_127_3529)"/>
<path d="M66.2433 193.425L108.111 189.984H66.2433V193.425Z" fill="#DCAD3B"/>
<path d="M66.2433 197.44L108.111 199.734H66.2433V197.44Z" fill="#DCAD3B"/>
<path d="M140.771 265.002H60.6481C57.8952 265.002 55.6011 262.765 55.6011 259.955V191.016C55.6011 188.263 57.8378 185.969 60.6481 185.969H140.771C143.524 185.969 145.818 188.206 145.818 191.016V260.012C145.818 262.765 143.581 265.002 140.771 265.002Z" fill="#C7CDDA"/>
<g opacity="0.3">
<path d="M55.6584 239.004H88.5219C89.7837 239.004 90.816 238.017 90.816 236.811H55.7158L55.6584 239.004Z" fill="#C7CDDA"/>
<path d="M70.5196 238.51H59.049V264.83H71.3799V255.508H74.8211V245.364H70.5196V238.51Z" fill="#B0B0B0" style="mix-blend-mode:multiply"/>
</g>
<path d="M89.2675 235.809H56.0599C54.454 235.809 53.1922 234.548 53.1922 232.942V218.145C53.1922 216.539 54.454 215.277 56.0599 215.277H89.2675C90.8733 215.277 92.1351 216.539 92.1351 218.145V232.942C92.1351 234.548 90.816 235.809 89.2675 235.809Z" fill="#D6DCE9"/>
<path d="M89.2674 235.809C89.2674 235.809 89.6689 235.866 90.3572 235.522C90.7013 235.35 91.1027 235.121 91.4469 234.662C91.791 234.26 92.0777 233.629 92.0777 232.941C92.0777 230.073 92.0777 225.887 92.0204 220.725C92.0204 220.094 92.0204 219.406 92.0204 218.775C92.0204 218.431 92.0204 218.087 91.963 217.742C91.9057 217.398 91.791 217.112 91.6189 216.825C91.2748 216.251 90.7013 215.735 90.0704 215.563C89.7263 215.448 89.3821 215.448 89.038 215.448C88.6939 215.448 88.2924 215.448 87.891 215.448C84.8512 215.448 81.6394 215.448 78.1983 215.448C71.3732 215.448 63.9173 215.448 56.0025 215.448C55.0849 215.448 54.1672 215.965 53.7084 216.767C53.479 217.169 53.3069 217.628 53.3069 218.087C53.3069 218.545 53.3069 219.062 53.3069 219.52C53.3069 221.413 53.3069 223.306 53.3069 225.198C53.3069 227.034 53.3069 228.869 53.3069 230.647C53.3069 231.507 53.3069 232.425 53.3069 233.285C53.4216 234.088 53.8805 234.891 54.5687 235.293C54.9128 235.522 55.3143 235.637 55.7158 235.694C56.1172 235.751 56.5187 235.694 56.9775 235.694C57.7805 235.694 58.6408 235.694 59.4437 235.694C61.0496 235.694 62.5982 235.694 64.1467 235.694C67.1864 235.694 69.9967 235.694 72.5776 235.694C77.7394 235.694 81.8689 235.751 84.7939 235.751C86.2277 235.751 87.3174 235.751 88.1204 235.751C88.4645 235.751 88.7513 235.751 88.9807 235.751C89.1527 235.809 89.2674 235.809 89.2674 235.809C89.2674 235.809 89.1527 235.809 88.9807 235.809C88.7513 235.809 88.4645 235.809 88.1204 235.809C87.3748 235.809 86.2277 235.809 84.7939 235.809C81.9262 235.809 77.7394 235.809 72.5776 235.866C69.9967 235.866 67.1864 235.866 64.1467 235.866C62.6555 235.866 61.0496 235.866 59.4437 235.866C58.6408 235.866 57.8378 235.866 56.9775 235.866C56.5761 235.866 56.1746 235.866 55.7158 235.866C55.2569 235.809 54.8555 235.637 54.454 235.407C53.7084 234.948 53.1349 234.088 53.0775 233.171C53.0202 232.253 53.0775 231.393 53.0775 230.532C53.0775 228.754 53.0775 226.919 53.0775 225.084C53.0775 223.248 53.0775 221.356 53.0775 219.406C53.0775 218.947 53.0775 218.431 53.0775 217.972C53.0775 217.456 53.2496 216.94 53.5363 216.538C54.0525 215.678 55.0849 215.104 56.1172 215.104C63.9746 215.104 71.4879 215.104 78.313 215.104C81.6968 215.104 84.9659 215.104 88.0057 215.104C88.4071 215.104 88.7513 215.104 89.1527 215.104C89.4968 215.104 89.8983 215.104 90.2998 215.276C91.0454 215.506 91.6189 216.022 91.963 216.653C92.1351 216.997 92.2498 217.341 92.3072 217.685C92.3645 218.029 92.3072 218.373 92.3645 218.717C92.3645 219.406 92.3645 220.037 92.3645 220.668C92.3645 225.829 92.3072 229.959 92.3072 232.884C92.3072 233.629 92.0204 234.26 91.6763 234.662C91.3322 235.121 90.8733 235.35 90.5292 235.522C90.1851 235.694 89.8983 235.694 89.6689 235.751C89.3821 235.809 89.2674 235.809 89.2674 235.809Z" fill="#868FA2"/>
<g opacity="0.3">
<path d="M82.5571 233.515C85.7246 233.515 88.2924 230.947 88.2924 227.779C88.2924 224.612 85.7246 222.044 82.5571 222.044C79.3896 222.044 76.8218 224.612 76.8218 227.779C76.8218 230.947 79.3896 233.515 82.5571 233.515Z" fill="#C7CDDA"/>
</g>
<path d="M82.5571 231.508C85.7246 231.508 88.2924 228.94 88.2924 225.772C88.2924 222.605 85.7246 220.037 82.5571 220.037C79.3896 220.037 76.8218 222.605 76.8218 225.772C76.8218 228.94 79.3896 231.508 82.5571 231.508Z" fill="#F2F5FA"/>
<path d="M88.2924 225.772C88.2351 225.772 88.2924 225.256 88.063 224.396C87.8336 223.535 87.2601 222.274 85.9409 221.299C85.3101 220.84 84.5071 220.438 83.5321 220.266C82.6145 220.094 81.5821 220.152 80.5497 220.496C80.0336 220.668 79.5747 220.955 79.1159 221.241C78.6571 221.585 78.2556 221.987 77.9115 222.446C77.2233 223.363 76.8218 224.568 76.8218 225.772C76.8218 226.977 77.2233 228.181 77.9115 229.099C78.2556 229.558 78.6571 229.959 79.1159 230.303C79.5747 230.647 80.0336 230.877 80.5497 231.049C81.5247 231.45 82.5571 231.45 83.5321 231.278C84.4498 231.106 85.2527 230.705 85.9409 230.246C87.2601 229.271 87.8336 228.009 88.063 227.149C88.2924 226.288 88.2351 225.772 88.2924 225.772C88.2924 225.772 88.3498 226.288 88.1777 227.206C88.0057 228.066 87.4321 229.386 86.113 230.475C85.4821 230.991 84.6218 231.393 83.6468 231.565C82.6718 231.737 81.5821 231.737 80.5497 231.336C80.0336 231.163 79.5174 230.877 79.0586 230.533C78.5997 230.188 78.1409 229.787 77.7968 229.271C77.0512 228.296 76.6497 227.034 76.6497 225.772C76.6497 224.51 77.0512 223.249 77.7968 222.274C78.1409 221.758 78.5997 221.356 79.0586 221.012C79.5174 220.668 80.0336 220.381 80.5497 220.209C81.5821 219.808 82.6718 219.808 83.6468 219.98C84.6218 220.152 85.4248 220.61 86.113 221.069C87.4321 222.102 88.0057 223.421 88.1777 224.338C88.3498 225.256 88.2924 225.772 88.2924 225.772Z" fill="#949AA8"/>
<path d="M230.644 102.182H226.598C225.616 102.182 224.807 101.373 224.807 100.391V96.3447C224.807 95.3622 225.616 94.553 226.598 94.553H230.644C231.627 94.553 232.436 95.3622 232.436 96.3447V100.391C232.494 101.373 231.627 102.182 230.644 102.182Z" fill="white"/>
<path d="M246.134 265.291L167.817 264.887C158.396 264.829 150.824 257.2 150.824 247.778L151.633 51.4934C151.691 42.0722 159.321 34.4428 168.742 34.5006L247.059 34.8474C256.48 34.9052 264.052 42.5346 264.052 51.9558L263.243 248.241C263.185 257.72 255.556 265.291 246.134 265.291Z" fill="#636E80"/>
<path d="M247.001 40.805L231.8 40.7466L187.469 40.5126H182.151L168.857 40.4541C162.268 40.3956 156.893 45.8356 156.835 52.504L156.026 246.415C156.026 253.083 161.343 258.523 167.933 258.582L246.077 258.933C252.666 258.991 258.041 253.551 258.099 246.883L258.908 52.972C258.908 46.2451 253.59 40.805 247.001 40.805Z" fill="#FAFAFA"/>
<g filter="url(#filter0_dd_127_3529)">
<rect x="163.54" y="47.2158" width="86.1203" height="17.9176" rx="8" fill="white"/>
</g>
<path fill-rule="evenodd" clip-rule="evenodd" d="M168.755 56.5482C169.046 56.6982 169.3 56.9231 169.428 57.2231C169.464 57.3168 169.537 57.2793 169.537 57.2043C169.555 57.1481 169.555 57.0543 169.573 56.9231C169.773 55.6859 170.574 54.43 171.574 53.8114C171.792 53.6614 171.974 53.5864 172.101 53.5114C172.211 53.4552 172.229 53.324 172.047 53.3427C171.629 53.3802 170.483 53.7551 169.646 54.2987C168.827 54.8424 168.1 55.5734 167.591 56.4357C167.572 56.4732 167.609 56.5295 167.645 56.5107C167.791 56.4732 168.227 56.2858 168.755 56.5482ZM171.137 60.6535C171.392 60.466 171.72 60.3536 172.047 60.3911C172.138 60.3911 172.156 60.3348 172.083 60.2786C172.029 60.2411 171.974 60.1849 171.865 60.0911C170.937 59.2851 170.283 57.9541 170.264 56.7357C170.264 56.4732 170.283 56.2483 170.283 56.1171C170.283 55.9859 170.192 55.9109 170.119 56.0796C169.955 56.4732 169.682 57.6917 169.719 58.7227C169.755 59.735 170.028 60.7472 170.483 61.6283C170.501 61.6658 170.555 61.647 170.574 61.6095C170.592 61.4596 170.646 60.9909 171.137 60.6535ZM175.739 60.5598C175.721 60.2411 175.776 59.8849 175.958 59.6225C176.012 59.5475 175.958 59.51 175.885 59.5288C175.83 59.5475 175.758 59.585 175.63 59.6412C174.484 60.0724 173.047 59.9974 172.029 59.4163C171.792 59.2851 171.629 59.1726 171.519 59.0976C171.41 59.0226 171.301 59.0789 171.41 59.2288C171.665 59.585 172.538 60.4286 173.411 60.8972C174.284 61.3658 175.248 61.6283 176.23 61.6658C176.267 61.6658 176.285 61.6095 176.267 61.572C176.158 61.4408 175.776 61.1596 175.739 60.5598ZM177.977 56.3795C177.686 56.2295 177.431 56.0046 177.304 55.7047C177.267 55.6109 177.194 55.6484 177.194 55.7234C177.176 55.7796 177.176 55.8734 177.158 56.0046C176.958 57.2418 176.158 58.4978 175.157 59.1164C174.939 59.2663 174.757 59.3413 174.63 59.4163C174.521 59.4725 174.502 59.6037 174.684 59.585C175.103 59.5475 176.249 59.1726 177.085 58.629C177.904 58.0854 178.631 57.3543 179.141 56.492C179.159 56.4545 179.122 56.3983 179.086 56.417C178.922 56.4545 178.504 56.6419 177.977 56.3795ZM175.594 52.2742C175.339 52.4617 175.012 52.5742 174.684 52.5367C174.593 52.5367 174.575 52.5929 174.648 52.6491C174.703 52.6866 174.757 52.7429 174.866 52.8366C175.794 53.6427 176.449 54.9736 176.467 56.1921C176.467 56.4545 176.449 56.6794 176.449 56.8107C176.449 56.9419 176.54 57.0169 176.612 56.8481C176.776 56.4545 177.049 55.236 177.013 54.205C176.976 53.1928 176.703 52.1805 176.249 51.2995C176.23 51.262 176.176 51.2807 176.158 51.3182C176.121 51.4682 176.067 51.9368 175.594 52.2742ZM170.974 52.368C170.992 52.6866 170.937 53.0428 170.756 53.3052C170.701 53.3802 170.755 53.4177 170.828 53.399C170.883 53.3802 170.956 53.3427 171.083 53.2865C172.229 52.8553 173.666 52.9303 174.684 53.5114C174.921 53.6427 175.085 53.7551 175.194 53.8301C175.303 53.9051 175.412 53.8489 175.303 53.6989C175.048 53.3427 174.175 52.4992 173.302 52.0305C172.429 51.5619 171.465 51.2995 170.483 51.262C170.446 51.262 170.428 51.3182 170.446 51.3557C170.574 51.4682 170.937 51.7681 170.974 52.368Z" fill="#6BA2E3"/>
<g filter="url(#filter1_dd_127_3529)">
<path d="M156.893 95.7668L169.99 95.7668C174.408 95.7668 177.99 99.3486 177.99 103.767V143.832C177.99 148.25 174.408 151.832 169.99 151.832H156.893V95.7668Z" fill="white"/>
</g>
<g filter="url(#filter2_dd_127_3529)">
<rect x="182.613" y="95.7668" width="67.0467" height="56.0649" rx="8" fill="white"/>
</g>
<g filter="url(#filter3_dd_127_3529)">
<rect x="163.54" y="158.768" width="86.1203" height="77.4505" rx="8" fill="white"/>
</g>
<g filter="url(#filter4_dd_127_3529)">
<rect x="163.54" y="68.6016" width="86.1203" height="17.9176" rx="8" fill="#DDEEFF"/>
</g>
<rect opacity="0.45" x="167.586" y="74.3813" width="25.4315" height="6.35787" rx="3.17894" fill="#98C0EF"/>
<rect x="190.705" y="125.244" width="43.3491" height="10.4038" rx="5.2019" fill="#449AFF"/>
<path d="M156.604 125.244H165.274C168.147 125.244 170.476 127.573 170.476 130.446V130.446C170.476 133.319 168.147 135.648 165.274 135.648H156.604V125.244Z" fill="#FCD34D"/>
<rect x="230.009" y="99.813" width="12.1378" height="8.09184" rx="4.04592" fill="#FCD34D"/>
<rect x="232.898" y="100.969" width="6.35787" height="5.77989" rx="2.88994" fill="white"/>
<rect x="168.742" y="164.548" width="43.3491" height="10.4038" rx="5.2019" fill="#E0E2EF"/>
<rect x="190.705" y="137.96" width="43.3491" height="10.4038" rx="5.2019" fill="#F1F2F8"/>
<path d="M156.604 137.96H165.274C168.147 137.96 170.476 140.289 170.476 143.162V143.162C170.476 146.035 168.147 148.364 165.274 148.364H156.604V137.96Z" fill="#F1F2F8"/>
<g filter="url(#filter5_dd_127_3529)">
<rect x="168.742" y="184.199" width="35.8353" height="19.6516" rx="8" fill="white"/>
</g>
<g filter="url(#filter6_dd_127_3529)">
<rect x="168.742" y="208.475" width="75.1385" height="19.6516" rx="8" fill="white"/>
</g>
<g filter="url(#filter7_dd_127_3529)">
<rect x="208.045" y="184.199" width="35.8353" height="19.6516" rx="8" fill="white"/>
</g>
<rect x="172.788" y="194.603" width="17.9176" height="5.2019" rx="2.60095" fill="#BDC0D2"/>
<rect x="212.669" y="194.603" width="17.9176" height="5.2019" rx="2.60095" fill="#BDC0D2"/>
<rect x="172.788" y="218.301" width="17.9176" height="5.2019" rx="2.60095" fill="#BDC0D2"/>
<path d="M197.077 118.315V119.676H191.624V118.594L194.407 115.965C194.703 115.683 194.902 115.443 195.005 115.243C195.108 115.037 195.16 114.834 195.16 114.635C195.16 114.346 195.06 114.127 194.861 113.975C194.668 113.817 194.383 113.738 194.005 113.738C193.689 113.738 193.404 113.8 193.149 113.924C192.895 114.041 192.682 114.219 192.51 114.46L191.294 113.676C191.575 113.257 191.964 112.931 192.459 112.697C192.953 112.456 193.52 112.336 194.16 112.336C194.696 112.336 195.163 112.426 195.562 112.604C195.967 112.776 196.28 113.023 196.5 113.346C196.727 113.663 196.84 114.037 196.84 114.47C196.84 114.862 196.757 115.23 196.593 115.573C196.428 115.917 196.108 116.309 195.634 116.748L193.974 118.315H197.077Z" fill="#747998"/>
<path d="M203.778 119.8C203.18 119.8 202.648 119.652 202.181 119.357C201.713 119.061 201.345 118.635 201.077 118.078C200.816 117.515 200.686 116.845 200.686 116.068C200.686 115.291 200.816 114.625 201.077 114.068C201.345 113.505 201.713 113.075 202.181 112.779C202.648 112.484 203.18 112.336 203.778 112.336C204.376 112.336 204.909 112.484 205.376 112.779C205.844 113.075 206.208 113.505 206.469 114.068C206.737 114.625 206.871 115.291 206.871 116.068C206.871 116.845 206.737 117.515 206.469 118.078C206.208 118.635 205.844 119.061 205.376 119.357C204.909 119.652 204.376 119.8 203.778 119.8ZM203.778 118.388C204.218 118.388 204.562 118.199 204.809 117.821C205.064 117.443 205.191 116.858 205.191 116.068C205.191 115.278 205.064 114.694 204.809 114.316C204.562 113.938 204.218 113.749 203.778 113.749C203.345 113.749 203.002 113.938 202.748 114.316C202.5 114.694 202.376 115.278 202.376 116.068C202.376 116.858 202.5 117.443 202.748 117.821C203.002 118.199 203.345 118.388 203.778 118.388Z" fill="#747998"/>
<path d="M210.775 119.8C210.177 119.8 209.645 119.652 209.177 119.357C208.71 119.061 208.342 118.635 208.074 118.078C207.813 117.515 207.683 116.845 207.683 116.068C207.683 115.291 207.813 114.625 208.074 114.068C208.342 113.505 208.71 113.075 209.177 112.779C209.645 112.484 210.177 112.336 210.775 112.336C211.373 112.336 211.906 112.484 212.373 112.779C212.841 113.075 213.205 113.505 213.466 114.068C213.734 114.625 213.868 115.291 213.868 116.068C213.868 116.845 213.734 117.515 213.466 118.078C213.205 118.635 212.841 119.061 212.373 119.357C211.906 119.652 211.373 119.8 210.775 119.8ZM210.775 118.388C211.215 118.388 211.559 118.199 211.806 117.821C212.06 117.443 212.188 116.858 212.188 116.068C212.188 115.278 212.06 114.694 211.806 114.316C211.559 113.938 211.215 113.749 210.775 113.749C210.342 113.749 209.999 113.938 209.744 114.316C209.497 114.694 209.373 115.278 209.373 116.068C209.373 116.858 209.497 117.443 209.744 117.821C209.999 118.199 210.342 118.388 210.775 118.388Z" fill="#747998"/>
<path d="M217.772 119.8C217.174 119.8 216.642 119.652 216.174 119.357C215.707 119.061 215.339 118.635 215.071 118.078C214.81 117.515 214.679 116.845 214.679 116.068C214.679 115.291 214.81 114.625 215.071 114.068C215.339 113.505 215.707 113.075 216.174 112.779C216.642 112.484 217.174 112.336 217.772 112.336C218.37 112.336 218.903 112.484 219.37 112.779C219.837 113.075 220.202 113.505 220.463 114.068C220.731 114.625 220.865 115.291 220.865 116.068C220.865 116.845 220.731 117.515 220.463 118.078C220.202 118.635 219.837 119.061 219.37 119.357C218.903 119.652 218.37 119.8 217.772 119.8ZM217.772 118.388C218.212 118.388 218.556 118.199 218.803 117.821C219.057 117.443 219.185 116.858 219.185 116.068C219.185 115.278 219.057 114.694 218.803 114.316C218.556 113.938 218.212 113.749 217.772 113.749C217.339 113.749 216.996 113.938 216.741 114.316C216.494 114.694 216.37 115.278 216.37 116.068C216.37 116.858 216.494 117.443 216.741 117.821C216.996 118.199 217.339 118.388 217.772 118.388Z" fill="#747998"/>
<path d="M229.939 117.563C229.939 118.126 229.733 118.611 229.321 119.016C228.908 119.415 228.314 119.662 227.537 119.759V120.913H226.506V119.789C225.998 119.762 225.513 119.673 225.053 119.521C224.592 119.37 224.221 119.185 223.939 118.965L224.506 117.707C224.767 117.9 225.073 118.061 225.424 118.192C225.774 118.322 226.135 118.405 226.506 118.439V116.717C226.018 116.601 225.606 116.47 225.269 116.326C224.932 116.181 224.651 115.972 224.424 115.697C224.197 115.415 224.084 115.044 224.084 114.583C224.084 114.013 224.29 113.525 224.702 113.12C225.121 112.707 225.723 112.456 226.506 112.367V111.223H227.537V112.346C228.383 112.415 229.08 112.625 229.63 112.975L229.114 114.243C228.599 113.948 228.073 113.769 227.537 113.707V115.46C228.018 115.57 228.424 115.697 228.754 115.841C229.09 115.979 229.372 116.188 229.599 116.47C229.826 116.745 229.939 117.109 229.939 117.563ZM225.743 114.501C225.743 114.673 225.809 114.814 225.939 114.924C226.07 115.034 226.259 115.126 226.506 115.202V113.738C226.245 113.8 226.053 113.9 225.929 114.037C225.805 114.168 225.743 114.322 225.743 114.501ZM227.537 118.398C227.785 118.343 227.97 118.253 228.094 118.13C228.218 118.006 228.279 117.858 228.279 117.686C228.279 117.515 228.214 117.374 228.084 117.264C227.96 117.154 227.778 117.058 227.537 116.975V118.398Z" fill="#BDC0D2"/>
<path d="M201.109 130.446L228.275 130.446" stroke="white" stroke-width="3"/>
<path d="M196.485 130.446L197.063 130.446" stroke="white" stroke-width="6" stroke-linecap="round" stroke-linejoin="round"/>
<path d="M196.485 143.162L197.063 143.162" stroke="#10B981" stroke-width="6" stroke-linecap="round" stroke-linejoin="round"/>
<path d="M201.109 143.162L228.275 143.162" stroke="#BDC0D2" stroke-width="3"/>
<path d="M235.976 239.108C238.981 224.774 253.604 222.154 260.54 222.635L256.494 263.095L250.425 264.54H243.201C239.54 262.035 232.97 253.442 235.976 239.108Z" fill="#EEEEEE" style="mix-blend-mode:multiply"/>
<path d="M173.077 109.928L151.691 124.666V109.928L173.077 90.565L188.971 82.4731L191.572 85.3631L181.458 99.8128L182.614 102.992L173.077 109.928Z" fill="#9BA5B5" fill-opacity="0.26" style="mix-blend-mode:multiply"/>
<circle cx="301.953" cy="189.661" r="22.5752" transform="rotate(-35.4645 301.953 189.661)" fill="#FFD470"/>
<circle cx="300.219" cy="189.174" r="22.5752" transform="rotate(-35.4645 300.219 189.174)" fill="#FFE5B1"/>
<circle cx="300.219" cy="189.175" r="15.2652" transform="rotate(-35.4645 300.219 189.175)" fill="#F2B624"/>
<ellipse cx="301.119" cy="188.401" rx="14.0827" ry="14.7277" transform="rotate(-35.4645 301.119 188.401)" fill="#FFD470"/>
<path d="M306.361 194.566C305.328 195.302 304.234 195.889 303.079 196.326C301.924 196.762 300.891 196.984 299.979 196.991L297.552 194.696L299.151 193.235C299.992 193.206 300.983 193.281 301.902 192.975C302.82 192.67 303.644 192.258 304.374 191.738C305.76 190.751 306.205 189.91 305.71 189.215C305.45 188.849 305.058 188.724 304.536 188.839C304.016 188.934 303.25 189.195 302.235 189.624C301.127 190.101 300.169 190.453 299.36 190.68C298.542 190.895 297.715 190.905 296.88 190.71C296.045 190.516 295.31 189.973 294.676 189.083C294.121 188.304 293.834 187.451 293.817 186.527C293.791 185.59 294.067 184.64 294.645 183.677C295.236 182.705 296.145 181.781 297.373 180.907C298.212 180.309 299.108 179.818 300.061 179.433C301.006 179.035 301.919 178.799 302.799 178.723L303.601 182.202C303.117 182.262 301.915 183.403 301.915 183.403C301.915 183.403 300.174 183.155 299.36 183.735C298.643 184.246 298.198 184.728 298.026 185.181C297.846 185.622 297.877 186.013 298.12 186.355C298.363 186.696 298.74 186.813 299.251 186.707C299.761 186.6 300.513 186.331 301.506 185.899C302.627 185.413 303.59 185.067 304.395 184.861C305.205 184.633 306.027 184.617 306.862 184.812C307.701 184.986 308.437 185.518 309.071 186.408C309.618 187.176 309.9 188.022 309.917 188.947C309.935 189.871 309.652 190.825 309.07 191.81C308.48 192.781 307.577 193.7 306.361 194.566Z" fill="#F2B624"/>
<path d="M294.632 180.22L296.908 178.598L299.154 181.75L296.877 183.372L294.632 180.22Z" fill="#F2B624"/>
<path d="M304.237 193.704L306.513 192.082L308.759 195.234L306.482 196.856L304.237 193.704Z" fill="#F2B624"/>
<path d="M304.61 195.813C303.577 196.549 302.483 197.136 301.328 197.573C300.173 198.01 299.14 198.231 298.228 198.238L297.512 194.724C298.352 194.695 299.232 194.528 300.151 194.222C301.069 193.917 301.893 193.505 302.623 192.985C304.009 191.998 304.454 191.157 303.959 190.462C303.699 190.096 303.307 189.971 302.785 190.086C302.265 190.181 301.499 190.442 300.484 190.871C299.376 191.348 298.418 191.7 297.609 191.927C296.791 192.142 295.964 192.153 295.129 191.958C294.293 191.763 293.559 191.22 292.925 190.331C292.369 189.551 292.083 188.698 292.066 187.774C292.04 186.837 292.316 185.887 292.894 184.924C293.485 183.952 294.394 183.029 295.622 182.154C296.461 181.556 297.357 181.065 298.31 180.68C299.255 180.282 300.167 180.046 301.048 179.97L301.85 183.449C300.165 183.657 298.752 184.168 297.609 184.982C296.892 185.493 296.447 185.975 296.275 186.428C296.095 186.869 296.126 187.26 296.369 187.602C296.612 187.943 296.989 188.06 297.499 187.954C298.01 187.847 298.762 187.578 299.755 187.146C300.875 186.66 301.838 186.314 302.644 186.108C303.453 185.88 304.276 185.864 305.111 186.059C305.95 186.233 306.686 186.765 307.32 187.655C307.867 188.423 308.149 189.269 308.166 190.194C308.183 191.118 307.901 192.073 307.319 193.057C306.729 194.028 305.826 194.947 304.61 195.813Z" fill="#FFE5B1"/>
<path d="M292.881 181.467L295.157 179.845L297.402 182.997L295.126 184.619L292.881 181.467Z" fill="#FFE5B1"/>
<path d="M302.486 194.951L304.762 193.329L307.008 196.481L304.731 198.103L302.486 194.951Z" fill="#FFE5B1"/>
<rect x="276.248" y="211.351" width="45.0831" height="9.24782" fill="#FFD87A"/>
<rect x="276.248" y="211.351" width="45.0831" height="9.24782" fill="url(#paint3_linear_127_3529)"/>
<rect x="279.138" y="220.598" width="45.0831" height="9.82581" fill="#FFD87A"/>
<rect x="279.138" y="220.598" width="45.0831" height="9.82581" fill="url(#paint4_linear_127_3529)"/>
<path d="M279.138 223.488L321.331 220.598H279.138V223.488Z" fill="#DCAD3B"/>
<path d="M279.138 228.112L321.331 230.424H279.138V228.112Z" fill="#DCAD3B"/>
<rect x="276.248" y="230.424" width="45.0831" height="9.24782" fill="#FFD87A"/>
<rect x="276.248" y="230.424" width="45.0831" height="9.24782" fill="url(#paint5_linear_127_3529)"/>
<rect x="275.67" y="258.746" width="45.0831" height="9.24782" fill="#FFD87A"/>
<rect x="275.67" y="258.746" width="45.0831" height="9.24782" fill="url(#paint6_linear_127_3529)"/>
<rect x="279.138" y="239.672" width="45.0831" height="9.24782" fill="#FFD87A"/>
<rect x="279.138" y="239.672" width="45.0831" height="9.24782" fill="url(#paint7_linear_127_3529)"/>
<rect x="277.981" y="248.92" width="45.0831" height="9.82581" fill="#FFD87A"/>
<rect x="277.981" y="248.92" width="45.0831" height="9.82581" fill="url(#paint8_linear_127_3529)"/>
<path d="M279.138 242.562L321.331 239.672H279.138V242.562Z" fill="#DCAD3B"/>
<path d="M277.981 252.388L320.175 248.92H277.981V252.388Z" fill="#DCAD3B"/>
<path d="M277.981 256.434L320.175 258.746H277.981V256.434Z" fill="#DCAD3B"/>
<path d="M288.674 242.339C285.669 228.005 271.046 225.385 264.11 225.867L268.156 266.326L274.224 267.771H281.449C285.11 265.266 291.68 256.674 288.674 242.339Z" fill="#EEEEEE" style="mix-blend-mode:multiply"/>
<circle cx="262.248" cy="246.064" r="22.5752" fill="#FFD470"/>
<circle cx="260.098" cy="246.064" r="22.5752" fill="#FFE9B4"/>
<circle cx="260.098" cy="246.064" r="15.2652" fill="#F2B624"/>
<ellipse cx="261.28" cy="245.956" rx="14.0827" ry="14.7277" fill="#FFD470"/>
<path d="M261.972 254.019C260.703 254.019 259.472 253.862 258.278 253.547C257.084 253.233 256.114 252.814 255.368 252.29L254.723 249.013L256.873 248.751C257.574 249.215 258.338 249.851 259.263 250.136C260.189 250.42 261.099 250.562 261.995 250.562C263.696 250.562 264.547 250.136 264.547 249.283C264.547 248.834 264.301 248.505 263.808 248.295C263.33 248.071 262.554 247.839 261.48 247.599C260.3 247.345 259.315 247.076 258.524 246.791C257.733 246.492 257.054 246.021 256.487 245.377C255.92 244.734 255.636 243.866 255.636 242.774C255.636 241.816 255.897 240.956 256.42 240.192C256.942 239.414 257.718 238.801 258.748 238.352C259.793 237.903 261.069 237.679 262.577 237.679C263.607 237.679 264.621 237.798 265.622 238.038C266.622 238.262 267.502 238.599 268.263 239.048L266.898 242.347C266.469 242.115 264.828 242.347 264.828 242.347C264.828 242.347 263.554 241.135 262.554 241.135C261.674 241.135 261.032 241.27 260.629 241.539C260.226 241.794 260.024 242.13 260.024 242.549C260.024 242.968 260.263 243.282 260.741 243.492C261.218 243.701 261.987 243.918 263.047 244.143C264.241 244.397 265.226 244.674 266.002 244.973C266.793 245.258 267.472 245.721 268.039 246.365C268.622 246.993 268.913 247.854 268.913 248.946C268.913 249.889 268.651 250.742 268.129 251.505C267.607 252.268 266.823 252.882 265.778 253.345C264.733 253.794 263.465 254.019 261.972 254.019Z" fill="#F2B624"/>
<path d="M260.743 235.529H263.538V239.399H260.743V235.529Z" fill="#F2B624"/>
<path d="M260.743 252.084H263.538V255.954H260.743V252.084Z" fill="#F2B624"/>
<path d="M259.822 254.019C258.554 254.019 257.322 253.862 256.128 253.547C254.934 253.233 253.964 252.814 253.218 252.29L254.673 249.013C255.374 249.477 256.188 249.851 257.113 250.136C258.039 250.42 258.949 250.562 259.845 250.562C261.546 250.562 262.397 250.136 262.397 249.283C262.397 248.834 262.151 248.505 261.658 248.295C261.18 248.071 260.404 247.839 259.33 247.599C258.151 247.345 257.165 247.076 256.374 246.791C255.583 246.492 254.904 246.021 254.337 245.377C253.77 244.734 253.486 243.866 253.486 242.774C253.486 241.816 253.747 240.956 254.27 240.192C254.792 239.414 255.568 238.801 256.598 238.352C257.643 237.903 258.919 237.679 260.427 237.679C261.457 237.679 262.472 237.798 263.472 238.038C264.472 238.262 265.352 238.599 266.113 239.048L264.748 242.347C263.255 241.539 261.807 241.135 260.404 241.135C259.524 241.135 258.882 241.27 258.479 241.539C258.076 241.794 257.874 242.13 257.874 242.549C257.874 242.968 258.113 243.282 258.591 243.492C259.068 243.701 259.837 243.918 260.897 244.143C262.091 244.397 263.076 244.674 263.852 244.973C264.643 245.258 265.322 245.721 265.89 246.365C266.472 246.993 266.763 247.854 266.763 248.946C266.763 249.889 266.502 250.742 265.979 251.505C265.457 252.268 264.673 252.882 263.628 253.345C262.584 253.794 261.315 254.019 259.822 254.019Z" fill="#FFE9B4"/>
<path d="M258.593 235.529H261.388V239.399H258.593V235.529Z" fill="#FFE9B4"/>
<path d="M258.593 252.084H261.388V255.954H258.593V252.084Z" fill="#FFE9B4"/>
<rect x="19.1013" y="239.108" width="45.0831" height="9.24782" fill="#FFD87A"/>
<rect x="19.1013" y="239.108" width="45.0831" height="9.24782" fill="url(#paint9_linear_127_3529)"/>
<rect x="21.9912" y="248.356" width="45.0831" height="9.82581" fill="#FFD87A"/>
<rect x="21.9912" y="248.356" width="45.0831" height="9.82581" fill="url(#paint10_linear_127_3529)"/>
<path d="M21.9912 251.246L64.1844 248.356H21.9912V251.246Z" fill="#DCAD3B"/>
<path d="M21.9912 255.87L64.1844 258.182H21.9912V255.87Z" fill="#DCAD3B"/>
<rect x="19.1013" y="258.182" width="45.0831" height="9.24782" fill="#FFD87A"/>
<rect x="19.1013" y="258.182" width="45.0831" height="9.24782" fill="url(#paint11_linear_127_3529)"/>
<g opacity="0.56">
<path d="M83.3422 66.1361L84.9211 70.1209L81.3492 71.4621L79.948 67.5949C76.3461 68.7884 72.6818 68.9181 70.1965 68.0393L70.565 63.0434C72.8426 63.6569 75.7686 63.6773 78.3967 62.9893L76.1322 57.1447C71.9372 57.6898 67.0915 58.0597 65.1548 53.0711C63.7837 49.3516 65.2183 45.0617 70.5299 42.4442L68.981 38.6071L72.5529 37.2659L73.954 41.1331C76.6999 40.2674 79.4181 40.0224 81.8434 40.6059L81.7702 45.5417C79.5527 45.2236 77.5728 45.3184 75.653 45.7087L77.9475 51.701C82.1425 51.1558 86.9882 50.7859 88.9249 55.7745C90.0884 59.2287 88.6237 63.3709 83.3422 66.1361ZM74.0179 52.0384L72.0812 47.0498C70.3114 48.1785 69.9609 49.48 70.4964 50.6013C70.9142 51.9004 72.1857 52.1033 74.0179 52.0384ZM83.258 58.1567C82.8401 56.8576 81.5687 56.6547 79.7366 56.7196L81.6432 61.5605C83.2652 60.4619 83.6458 59.3081 83.258 58.1567Z" fill="white"/>
</g>
<g opacity="0.56">
<path d="M25.9062 129.432L28.7207 131.275L27.035 133.751L24.3877 131.902C22.616 134.297 20.3234 136.036 18.3314 136.596L16.3095 133.224C18.0483 132.588 19.935 131.278 21.3104 129.648L17.2153 126.922C14.7699 129.168 11.8278 131.596 8.32996 129.27C5.76871 127.503 4.75007 124.102 6.97511 120.021L4.24666 118.259L5.93233 115.784L8.57959 117.632C9.95017 115.836 11.5837 114.45 13.4036 113.728L15.5879 116.928C14.0211 117.726 12.7936 118.682 11.7382 119.8L15.9193 122.608C18.3647 120.362 21.3068 117.934 24.8046 120.26C27.1126 121.95 28.0452 125.27 25.9062 129.432ZM13.5503 124.601L10.0525 122.276C9.42709 123.8 9.79049 124.793 10.641 125.271C11.4964 125.915 12.404 125.471 13.5503 124.601ZM22.2451 124.35C21.3898 123.705 20.4822 124.15 19.3359 125.02L22.7477 127.264C23.2918 125.826 23.0145 124.913 22.2451 124.35Z" fill="white"/>
</g>
<g opacity="0.56">
<path d="M350.339 148.327L348.436 151.101L345.998 149.363L347.902 146.756C345.546 144.934 343.855 142.604 343.339 140.601L346.753 138.651C347.352 140.403 348.621 142.317 350.221 143.727L353.034 139.691C350.841 137.199 348.476 134.205 350.876 130.758C352.697 128.235 356.119 127.289 360.151 129.601L361.971 126.91L364.41 128.648L362.506 131.256C364.273 132.664 365.624 134.327 366.307 136.162L363.06 138.277C362.296 136.694 361.366 135.446 360.271 134.367L357.374 138.488C359.568 140.98 361.932 143.973 359.533 147.421C357.794 149.692 354.454 150.554 350.339 148.327ZM355.432 136.077L357.832 132.629C356.322 131.971 355.32 132.314 354.825 133.154C354.162 133.995 354.587 134.912 355.432 136.077ZM355.498 144.775C356.161 143.933 355.736 143.017 354.891 141.852L352.574 145.215C354 145.79 354.918 145.532 355.498 144.775Z" fill="white"/>
</g>
<path d="M132.304 256.758C132.304 256.758 135.855 262.227 141.865 262.227C150.953 262.227 149.906 268.212 149.906 268.212C148.08 269.378 145.504 270.11 143.322 270.281L128.282 268.585L127.415 267.718L126.259 268.212L119.324 267.14C117.571 262.382 120.033 261.516 119.939 257.443L132.304 256.758Z" fill="#354056"/>
<path d="M91.0601 254.93C91.0601 256.975 88.8686 260.705 87.5343 261.938C84.3433 264.888 80.5992 264.324 84.0663 270.03L85.5113 270.608L95.3371 270.825C99.0603 270.286 100.762 269.007 102.273 267.364C102.427 267.197 102.699 266.159 102.851 265.984C102.851 266.273 102.851 266.562 102.851 266.851C103.04 266.629 103.52 265.926 103.718 265.695C104.007 260.493 102.95 256.067 103.429 253.558L91.0601 254.93Z" fill="#354056"/>
<path d="M143.875 144.318C143.875 144.318 145.253 151.054 144.794 159.845C144.597 163.256 135.528 258.511 135.528 258.511C135.528 258.511 130.269 259.513 127.264 259.513C124.259 259.513 118.499 258.511 118.499 258.511L122.005 168.359L121.504 169.862C121.504 169.862 112.516 208.063 111.991 214.165C111.532 219.676 105.452 258.511 105.452 258.511C105.452 258.511 105.624 260.416 97.3601 259.915C89.0961 259.415 88.6903 257.315 88.6903 257.315L94.9593 206.423L98.5418 156.76L100.182 142.065L132.773 129.293L143.875 144.318Z" fill="#3A4961"/>
<path d="M129.832 55.1677C129.572 56.4369 129.557 60.4269 129.727 61.0874L129.357 62.6705L126.426 64.964L115.88 59.1302L116.145 55.0186L129.832 55.1677Z" fill="url(#paint12_linear_127_3529)"/>
<path d="M115.744 56.9207C118.431 60.7431 121.958 61.29 125.446 63.9843C126.938 63.2272 128.125 62.8932 129.832 60.4365L130.003 61.8393C131.049 62.0471 131.932 64.0511 132.86 65.5578C136.637 67.7399 140.422 69.3357 144.199 72.1115C144.882 72.6459 145.543 73.8261 145.736 74.5089C147.932 82.5174 150.478 89.1677 152.2 99.0985C157.602 94.6527 161.936 92.4706 168.779 84.9964L177.35 96.0406C169.031 102.075 161.239 108.963 152.474 114.329C151.19 115.116 149.55 115.999 147.903 115.019C145.676 113.698 144.021 111.724 141.914 109.735C141.706 126.553 146.626 141.65 145.528 156.42L136.637 157.095C135.101 156.628 133.669 155.856 133.134 152.516L131.784 132.031C129.209 141.91 129.209 155.373 119.049 155.544C112.385 153.028 102.603 149.436 99.9837 143.35C100.652 140.789 100.088 138.607 99.7165 136.744L94.1283 141.694C90.1802 138.644 84.8888 120.623 83.2784 114.774C82.8183 108.428 84.258 88.7298 90.4622 70.872C91.2785 68.0071 93.7721 66.6488 95.0337 66.107L108.065 61.5424C110.486 59.1745 111.988 59.1745 113.24 58.924L115.744 56.9207ZM98.9373 105.571L96.1766 108.718C95.568 109.452 95.5606 110.12 95.7981 110.811L98.9447 118.723V105.571H98.9373Z" fill="#3E83D3"/>
<path d="M171.581 85.5737C171.299 84.2599 171.187 82.8423 171.67 80.7715C172.464 79.1758 173.325 77.6616 173.814 75.7096C173.866 74.7967 174.772 74.7818 175.21 75.2717C176.219 76.3999 175.878 77.6542 174.868 80.0738C174.26 81.3876 175.343 81.536 175.707 81.4469C178.312 80.1555 181.332 77.7136 184.664 76.0584C185.317 75.6948 185.792 75.8803 186.126 76.5335L187.848 75.2568C188.709 74.6779 190.252 75.4869 189.206 76.9788C190.163 77.58 189.867 78.3222 189.444 78.7898L187.254 81.4544C187.967 81.2391 188.026 81.9442 187.685 82.3599C186.616 83.5845 185.688 84.6088 184.115 86.5979C182.586 88.5351 181.236 90.257 179.373 90.925C178.698 91.1626 177.926 91.6895 177.28 92.0681L171.581 85.5737Z" fill="#F5C799"/>
<path d="M186.134 76.3259C186.193 76.3259 186.245 76.3556 186.282 76.3927C186.356 76.4744 186.349 76.6005 186.26 76.6748L180.315 81.8332C180.234 81.9074 180.108 81.8926 180.033 81.8109C179.959 81.7293 179.967 81.6031 180.056 81.5289L186 76.3705C186.037 76.3408 186.082 76.3259 186.134 76.3259Z" fill="#DBA17A"/>
<path d="M189.206 76.7712C189.265 76.7712 189.317 76.7935 189.354 76.838C189.391 76.8752 189.406 76.9271 189.406 76.9865C189.406 77.0384 189.377 77.0904 189.34 77.1275L182.371 83.2879C182.334 83.325 182.282 83.3399 182.23 83.3399C182.178 83.3399 182.126 83.3102 182.089 83.2731C182.052 83.236 182.037 83.184 182.037 83.132C182.037 83.0801 182.067 83.0281 182.104 82.991L189.072 76.8306C189.109 76.7935 189.154 76.7712 189.206 76.7712Z" fill="#DBA17A"/>
<path d="M187.262 81.2538C187.321 81.2538 187.373 81.2835 187.41 81.328C187.477 81.4097 187.469 81.5359 187.38 81.6101L183.714 84.6383C183.633 84.7051 183.507 84.6977 183.432 84.6086C183.366 84.527 183.373 84.4008 183.462 84.3266L187.128 81.2983C187.165 81.2612 187.21 81.2464 187.262 81.2538Z" fill="#DBA17A"/>
<path d="M129.995 61.8317C133.847 72.6161 136.407 84.3357 130.225 102.386C125.639 89.739 123.657 78.9398 113.987 62.6852C112.822 60.7777 112.617 60.1857 113.24 58.9239L115.995 56.4197C117.041 58.5498 120.882 60.7629 125.431 63.9396C127.294 63.1973 128.733 62.0172 129.817 60.4214L129.995 61.8317Z" fill="#FAFAFF"/>
<path d="M127.331 65.7436L124.392 65.6025L123.331 67.3467L125.327 70.5086C124.696 77.3518 125.305 83.3118 125.899 89.2793L130.225 102.394C131.353 98.4679 132.615 94.7346 133.231 90.0437C133.075 81.7903 129.854 76.4686 127.85 69.989L128.377 67.6065L127.331 65.7436Z" fill="#354056"/>
<path d="M129.891 110.543C129.277 110.543 128.778 110.045 128.778 109.43C128.778 108.815 129.277 108.317 129.891 108.317C130.506 108.317 131.005 108.815 131.005 109.43C131.005 110.045 130.506 110.543 129.891 110.543Z" fill="#354056"/>
<path d="M129.891 124.898C129.277 124.898 128.778 124.399 128.778 123.784C128.778 123.17 129.277 122.671 129.891 122.671C130.506 122.671 131.005 123.17 131.005 123.784C131.005 124.399 130.506 124.898 129.891 124.898Z" fill="#354056"/>
<path d="M178.263 91.4683L176.074 94.4224L169.068 85.3747L171.094 83.2668L178.263 91.4683Z" fill="#FAFAFF"/>
<path d="M100.318 140.73L97.5198 143.394L95.2638 140.663L99.7091 136.751C99.9169 138.065 100.273 138.933 100.318 140.73Z" fill="#FAFAFF"/>
<path d="M97.5199 143.386C98.2026 144.856 98.5885 146.274 99.6201 147.201L99.9837 143.349C100.251 142.451 100.325 141.575 100.318 140.722L97.5199 143.386Z" fill="#FFB380"/>
<path d="M114.566 62.9453C114.655 62.9453 114.737 62.9824 114.796 63.0492L121.142 70.078L125.179 63.8137C125.268 63.6727 125.461 63.6282 125.609 63.7172C128.184 65.2685 129.157 68.4526 130.626 70.9241L131.65 69.2096C131.739 69.0612 131.932 69.0092 132.081 69.0983C132.229 69.1874 132.281 69.3803 132.192 69.5288L130.893 71.7109C130.834 71.8074 130.737 71.8593 130.626 71.8668C130.515 71.8668 130.411 71.8148 130.359 71.7257C128.711 69.1725 127.784 65.9884 125.535 64.4372L121.453 70.7683C121.401 70.8499 121.312 70.9019 121.216 70.9093C121.119 70.9167 121.023 70.8796 120.956 70.8054L114.336 63.4649C114.277 63.4055 114.255 63.3238 114.255 63.2348C114.262 63.1531 114.299 63.0715 114.359 63.0195C114.411 62.975 114.485 62.9453 114.566 62.9453Z" fill="#D1DCEA"/>
<path d="M108.065 61.2454C108.125 61.2454 108.177 61.2602 108.229 61.2899C108.377 61.379 108.429 61.5719 108.34 61.7204L106.552 64.7189L110.292 66.1143C110.403 66.1588 110.477 66.2553 110.492 66.3741C110.507 66.4928 110.455 66.6042 110.359 66.671L107.012 68.957C117.045 81.3001 123.643 96.226 131.769 106.521C131.813 106.573 131.836 106.647 131.836 106.714L132.095 132.038C132.095 132.12 132.066 132.201 132.006 132.261C131.947 132.32 131.865 132.357 131.784 132.357C131.702 132.357 131.62 132.327 131.561 132.268C131.502 132.209 131.465 132.127 131.465 132.045L131.205 106.825C122.975 96.3596 116.37 81.3669 106.314 69.0906C106.255 69.0238 106.232 68.9347 106.247 68.8457C106.262 68.7566 106.307 68.6824 106.381 68.6304L109.498 66.5003L105.973 65.1865C105.884 65.1568 105.817 65.0826 105.787 64.9936C105.757 64.9045 105.765 64.808 105.817 64.7264L107.798 61.4012C107.85 61.3047 107.954 61.2454 108.065 61.2454Z" fill="url(#paint13_linear_127_3529)" fill-opacity="0.39"/>
<path d="M137.327 67.97C137.416 67.97 137.498 68.0145 137.55 68.0813L138.901 69.6325C138.96 69.6993 138.99 69.7884 138.975 69.87C138.967 69.9591 138.923 70.0408 138.849 70.0927L136.919 71.5326L140.073 73.5366C140.17 73.596 140.222 73.6999 140.222 73.8112C139.947 84.7515 135.628 94.6452 131.91 104.635C131.85 104.799 131.665 104.88 131.502 104.821C131.42 104.791 131.361 104.732 131.324 104.658C131.286 104.584 131.286 104.494 131.316 104.413C135.019 94.4523 139.257 84.6847 139.576 73.9671L136.199 71.8147C136.11 71.7553 136.058 71.6662 136.051 71.5623C136.043 71.4584 136.095 71.3619 136.177 71.2951L138.196 69.7884L137.068 68.4969C137.016 68.4376 136.986 68.3485 136.993 68.2669C137.001 68.1852 137.038 68.1036 137.097 68.0516C137.164 67.9922 137.246 67.97 137.327 67.97Z" fill="url(#paint14_linear_127_3529)" fill-opacity="0.39"/>
<path d="M95.7106 65.9359L107.731 61.6787L105.978 64.9342L110.235 66.4368C109.567 66.9376 107.981 68.2398 106.98 69.4418C109.985 71.1948 118.249 86.9715 120.502 90.7278C122.306 93.7329 128.766 102.832 131.772 107.005L98.9661 120.027V105.503C100.135 98.2405 102.222 82.2635 101.22 76.4537C100.218 70.6439 97.1296 67.0211 95.7106 65.9359Z" fill="url(#paint15_linear_127_3529)" fill-opacity="0.39"/>
<path d="M133.211 42.133C133.211 42.133 135.236 39.4132 136.751 41.6715C138.266 43.9133 136.126 50.54 132.42 48.9245L133.211 42.133Z" fill="#ECBD8F"/>
<path d="M133.244 46.8803C133.376 46.8803 133.507 46.7978 133.54 46.6495C134.117 44.6054 136.225 43.7812 136.258 43.7647C136.422 43.6988 136.505 43.5175 136.439 43.3691C136.373 43.2043 136.192 43.1219 136.043 43.1878C135.945 43.2208 133.606 44.1274 132.948 46.4846C132.898 46.6495 132.997 46.8308 133.162 46.8638C133.195 46.8638 133.211 46.8803 133.244 46.8803Z" fill="#D29165" fill-opacity="0.48"/>
<path d="M135.384 45.8423C135.45 45.8423 135.499 45.8258 135.549 45.7929C135.697 45.694 135.73 45.5126 135.648 45.3643C135.631 45.3478 135.252 44.7708 134.478 44.4247C134.314 44.3587 134.133 44.4247 134.067 44.5895C134.001 44.7544 134.067 44.9357 134.231 45.0016C134.841 45.2654 135.137 45.7104 135.137 45.7104C135.17 45.7929 135.269 45.8423 135.384 45.8423Z" fill="#D29165" fill-opacity="0.48"/>
<path d="M112.264 42.133C112.264 42.133 110.238 39.4132 108.723 41.6715C107.208 43.9133 109.349 50.54 113.054 48.9245L112.264 42.133Z" fill="#ECBD8F"/>
<path d="M112.247 46.8803C112.115 46.8803 111.984 46.7978 111.951 46.6495C111.374 44.6054 109.266 43.7812 109.234 43.7647C109.069 43.6988 108.987 43.5175 109.052 43.3691C109.118 43.2043 109.299 43.1219 109.448 43.1878C109.546 43.2208 111.885 44.1274 112.544 46.4846C112.593 46.6495 112.494 46.8308 112.33 46.8638C112.297 46.8638 112.264 46.8803 112.247 46.8803Z" fill="#D29165" fill-opacity="0.48"/>
<path d="M110.106 45.8423C110.04 45.8423 109.991 45.8258 109.942 45.7929C109.793 45.694 109.76 45.5126 109.843 45.3643C109.859 45.3478 110.238 44.7708 111.012 44.4247C111.177 44.3587 111.358 44.4247 111.424 44.5895C111.49 44.7544 111.424 44.9357 111.259 45.0016C110.65 45.2654 110.353 45.7104 110.353 45.7104C110.304 45.7929 110.205 45.8423 110.106 45.8423Z" fill="#D29165" fill-opacity="0.48"/>
<path d="M110.798 37.6166C110.913 40.1717 111.16 43.3861 111.654 45.9411C111.77 46.584 111.918 47.1774 112.066 47.7214C113.449 52.5842 116.434 60.5095 126.624 57.4306C130.905 55.8976 132.898 51.1172 133.787 46.2708C134.38 42.974 134.479 39.6442 134.43 37.254C134.38 34.8143 133.063 32.6054 130.938 31.4021C125.208 28.1547 119.164 29.3581 115.195 30.8911C112.428 31.9461 110.65 34.666 110.798 37.6166Z" fill="#F5C799"/>
<path d="M127.661 44.26C127.215 44.26 126.854 43.6917 126.854 42.9907C126.854 42.2897 127.215 41.7214 127.661 41.7214C128.107 41.7214 128.468 42.2897 128.468 42.9907C128.468 43.6917 128.107 44.26 127.661 44.26Z" fill="#212F48"/>
<path d="M118.044 44.26C117.598 44.26 117.237 43.6917 117.237 42.9907C117.237 42.2897 117.598 41.7214 118.044 41.7214C118.49 41.7214 118.851 42.2897 118.851 42.9907C118.851 43.6917 118.49 44.26 118.044 44.26Z" fill="#212F48"/>
<path d="M114.866 38.8031C114.866 38.8031 118.209 37.4844 120.777 38.5888L120.514 40.0229C120.514 40.0229 116.743 39.7097 114.833 40.468C114.668 39.924 114.635 39.3636 114.866 38.8031Z" fill="#2C3950"/>
<path d="M130.757 38.803C130.757 38.803 127.398 37.4678 124.796 38.5887L125.059 40.0393C125.059 40.0393 128.863 39.7097 130.79 40.5009C130.938 39.9404 130.971 39.38 130.757 38.803Z" fill="#2C3950"/>
<path d="M122.638 48.3314C122.111 48.3314 121.584 48.1336 121.502 48.1006C121.337 48.0347 121.271 47.8533 121.337 47.6885C121.403 47.5236 121.584 47.4577 121.749 47.5236C122.029 47.639 122.704 47.8204 123.001 47.639C123.05 47.6061 123.132 47.5401 123.149 47.3423C123.264 46.2544 122.968 42.5784 122.968 42.5454C122.951 42.3806 123.083 42.2157 123.248 42.2157C123.412 42.1993 123.577 42.3311 123.577 42.496C123.593 42.6443 123.89 46.2544 123.758 47.4083C123.709 47.8368 123.478 48.0676 123.297 48.1665C123.116 48.2984 122.869 48.3314 122.638 48.3314Z" fill="#DBA17A"/>
<path d="M126.561 50.4573C126.334 51.312 125.557 52.8693 122.935 52.8693C120.312 52.8693 119.584 51.4408 119.325 50.4573H126.561Z" fill="white"/>
<path d="M110.827 40.9513C108.497 36.6536 105.697 22.308 116.91 25.3118C124.943 18.7518 131.309 25.1604 137.897 25.3118C137.436 26.9385 138.621 28.5079 135.968 31.8848C133.797 35.0204 135.485 41.2918 134.038 41.2918C133.42 38.462 132.977 35.2823 131.867 33.8144C128.085 34.1397 121.675 33.6422 115.83 32.7267C114.981 37.5162 112.338 36.8125 112.219 41.2918L110.827 40.9513Z" fill="#2C3950"/>
<path d="M152.056 99.2422C151.555 95.7363 148.049 81.4621 145.044 72.9478C144.794 77.038 144.243 86.3204 144.042 90.7278C143.842 95.1353 142.456 105.085 141.788 109.51C143.124 111.096 146.446 114.468 149.051 115.269C151.655 116.071 160.988 108.591 165.328 104.752L160.069 92.9816C158.567 94.2337 154.059 97.0385 152.056 99.2422Z" fill="url(#paint16_linear_127_3529)" fill-opacity="0.32"/>
<path opacity="0.72" d="M115.244 122.782L99.4669 121.53L100.719 128.291L110.486 129.544C113.069 129.831 114.242 129.794 114.743 126.789L115.244 122.782Z" fill="#5698E7"/>
<defs>
<filter id="filter0_dd_127_3529" x="155.54" y="43.2158" width="102.12" height="33.9177" filterUnits="userSpaceOnUse" color-interpolation-filters="sRGB">
<feFlood flood-opacity="0" result="BackgroundImageFix"/>
<feColorMatrix in="SourceAlpha" type="matrix" values="0 0 0 0 0 0 0 0 0 0 0 0 0 0 0 0 0 0 127 0" result="hardAlpha"/>
<feOffset dy="4"/>
<feGaussianBlur stdDeviation="4"/>
<feColorMatrix type="matrix" values="0 0 0 0 0 0 0 0 0 0 0 0 0 0 0 0 0 0 0.05 0"/>
<feBlend mode="normal" in2="BackgroundImageFix" result="effect1_dropShadow_127_3529"/>
<feColorMatrix in="SourceAlpha" type="matrix" values="0 0 0 0 0 0 0 0 0 0 0 0 0 0 0 0 0 0 127 0" result="hardAlpha"/>
<feOffset/>
<feGaussianBlur stdDeviation="2"/>
<feColorMatrix type="matrix" values="0 0 0 0 0 0 0 0 0 0 0 0 0 0 0 0 0 0 0.04 0"/>
<feBlend mode="normal" in2="effect1_dropShadow_127_3529" result="effect2_dropShadow_127_3529"/>
<feBlend mode="normal" in="SourceGraphic" in2="effect2_dropShadow_127_3529" result="shape"/>
</filter>
<filter id="filter1_dd_127_3529" x="148.893" y="91.7668" width="37.0966" height="72.0649" filterUnits="userSpaceOnUse" color-interpolation-filters="sRGB">
<feFlood flood-opacity="0" result="BackgroundImageFix"/>
<feColorMatrix in="SourceAlpha" type="matrix" values="0 0 0 0 0 0 0 0 0 0 0 0 0 0 0 0 0 0 127 0" result="hardAlpha"/>
<feOffset dy="4"/>
<feGaussianBlur stdDeviation="4"/>
<feColorMatrix type="matrix" values="0 0 0 0 0 0 0 0 0 0 0 0 0 0 0 0 0 0 0.05 0"/>
<feBlend mode="normal" in2="BackgroundImageFix" result="effect1_dropShadow_127_3529"/>
<feColorMatrix in="SourceAlpha" type="matrix" values="0 0 0 0 0 0 0 0 0 0 0 0 0 0 0 0 0 0 127 0" result="hardAlpha"/>
<feOffset/>
<feGaussianBlur stdDeviation="2"/>
<feColorMatrix type="matrix" values="0 0 0 0 0 0 0 0 0 0 0 0 0 0 0 0 0 0 0.04 0"/>
<feBlend mode="normal" in2="effect1_dropShadow_127_3529" result="effect2_dropShadow_127_3529"/>
<feBlend mode="normal" in="SourceGraphic" in2="effect2_dropShadow_127_3529" result="shape"/>
</filter>
<filter id="filter2_dd_127_3529" x="174.613" y="91.7668" width="83.0467" height="72.0649" filterUnits="userSpaceOnUse" color-interpolation-filters="sRGB">
<feFlood flood-opacity="0" result="BackgroundImageFix"/>
<feColorMatrix in="SourceAlpha" type="matrix" values="0 0 0 0 0 0 0 0 0 0 0 0 0 0 0 0 0 0 127 0" result="hardAlpha"/>
<feOffset dy="4"/>
<feGaussianBlur stdDeviation="4"/>
<feColorMatrix type="matrix" values="0 0 0 0 0 0 0 0 0 0 0 0 0 0 0 0 0 0 0.05 0"/>
<feBlend mode="normal" in2="BackgroundImageFix" result="effect1_dropShadow_127_3529"/>
<feColorMatrix in="SourceAlpha" type="matrix" values="0 0 0 0 0 0 0 0 0 0 0 0 0 0 0 0 0 0 127 0" result="hardAlpha"/>
<feOffset/>
<feGaussianBlur stdDeviation="2"/>
<feColorMatrix type="matrix" values="0 0 0 0 0 0 0 0 0 0 0 0 0 0 0 0 0 0 0.04 0"/>
<feBlend mode="normal" in2="effect1_dropShadow_127_3529" result="effect2_dropShadow_127_3529"/>
<feBlend mode="normal" in="SourceGraphic" in2="effect2_dropShadow_127_3529" result="shape"/>
</filter>
<filter id="filter3_dd_127_3529" x="155.54" y="154.768" width="102.12" height="93.4504" filterUnits="userSpaceOnUse" color-interpolation-filters="sRGB">
<feFlood flood-opacity="0" result="BackgroundImageFix"/>
<feColorMatrix in="SourceAlpha" type="matrix" values="0 0 0 0 0 0 0 0 0 0 0 0 0 0 0 0 0 0 127 0" result="hardAlpha"/>
<feOffset dy="4"/>
<feGaussianBlur stdDeviation="4"/>
<feColorMatrix type="matrix" values="0 0 0 0 0 0 0 0 0 0 0 0 0 0 0 0 0 0 0.05 0"/>
<feBlend mode="normal" in2="BackgroundImageFix" result="effect1_dropShadow_127_3529"/>
<feColorMatrix in="SourceAlpha" type="matrix" values="0 0 0 0 0 0 0 0 0 0 0 0 0 0 0 0 0 0 127 0" result="hardAlpha"/>
<feOffset/>
<feGaussianBlur stdDeviation="2"/>
<feColorMatrix type="matrix" values="0 0 0 0 0 0 0 0 0 0 0 0 0 0 0 0 0 0 0.04 0"/>
<feBlend mode="normal" in2="effect1_dropShadow_127_3529" result="effect2_dropShadow_127_3529"/>
<feBlend mode="normal" in="SourceGraphic" in2="effect2_dropShadow_127_3529" result="shape"/>
</filter>
<filter id="filter4_dd_127_3529" x="155.54" y="64.6016" width="102.12" height="33.9177" filterUnits="userSpaceOnUse" color-interpolation-filters="sRGB">
<feFlood flood-opacity="0" result="BackgroundImageFix"/>
<feColorMatrix in="SourceAlpha" type="matrix" values="0 0 0 0 0 0 0 0 0 0 0 0 0 0 0 0 0 0 127 0" result="hardAlpha"/>
<feOffset dy="4"/>
<feGaussianBlur stdDeviation="4"/>
<feColorMatrix type="matrix" values="0 0 0 0 0 0 0 0 0 0 0 0 0 0 0 0 0 0 0.05 0"/>
<feBlend mode="normal" in2="BackgroundImageFix" result="effect1_dropShadow_127_3529"/>
<feColorMatrix in="SourceAlpha" type="matrix" values="0 0 0 0 0 0 0 0 0 0 0 0 0 0 0 0 0 0 127 0" result="hardAlpha"/>
<feOffset/>
<feGaussianBlur stdDeviation="2"/>
<feColorMatrix type="matrix" values="0 0 0 0 0 0 0 0 0 0 0 0 0 0 0 0 0 0 0.04 0"/>
<feBlend mode="normal" in2="effect1_dropShadow_127_3529" result="effect2_dropShadow_127_3529"/>
<feBlend mode="normal" in="SourceGraphic" in2="effect2_dropShadow_127_3529" result="shape"/>
</filter>
<filter id="filter5_dd_127_3529" x="160.742" y="180.199" width="51.8353" height="35.6516" filterUnits="userSpaceOnUse" color-interpolation-filters="sRGB">
<feFlood flood-opacity="0" result="BackgroundImageFix"/>
<feColorMatrix in="SourceAlpha" type="matrix" values="0 0 0 0 0 0 0 0 0 0 0 0 0 0 0 0 0 0 127 0" result="hardAlpha"/>
<feOffset dy="4"/>
<feGaussianBlur stdDeviation="4"/>
<feColorMatrix type="matrix" values="0 0 0 0 0 0 0 0 0 0 0 0 0 0 0 0 0 0 0.08 0"/>
<feBlend mode="normal" in2="BackgroundImageFix" result="effect1_dropShadow_127_3529"/>
<feColorMatrix in="SourceAlpha" type="matrix" values="0 0 0 0 0 0 0 0 0 0 0 0 0 0 0 0 0 0 127 0" result="hardAlpha"/>
<feOffset/>
<feGaussianBlur stdDeviation="2"/>
<feColorMatrix type="matrix" values="0 0 0 0 0 0 0 0 0 0 0 0 0 0 0 0 0 0 0.04 0"/>
<feBlend mode="normal" in2="effect1_dropShadow_127_3529" result="effect2_dropShadow_127_3529"/>
<feBlend mode="normal" in="SourceGraphic" in2="effect2_dropShadow_127_3529" result="shape"/>
</filter>
<filter id="filter6_dd_127_3529" x="160.742" y="204.475" width="91.1385" height="35.6516" filterUnits="userSpaceOnUse" color-interpolation-filters="sRGB">
<feFlood flood-opacity="0" result="BackgroundImageFix"/>
<feColorMatrix in="SourceAlpha" type="matrix" values="0 0 0 0 0 0 0 0 0 0 0 0 0 0 0 0 0 0 127 0" result="hardAlpha"/>
<feOffset dy="4"/>
<feGaussianBlur stdDeviation="4"/>
<feColorMatrix type="matrix" values="0 0 0 0 0 0 0 0 0 0 0 0 0 0 0 0 0 0 0.08 0"/>
<feBlend mode="normal" in2="BackgroundImageFix" result="effect1_dropShadow_127_3529"/>
<feColorMatrix in="SourceAlpha" type="matrix" values="0 0 0 0 0 0 0 0 0 0 0 0 0 0 0 0 0 0 127 0" result="hardAlpha"/>
<feOffset/>
<feGaussianBlur stdDeviation="2"/>
<feColorMatrix type="matrix" values="0 0 0 0 0 0 0 0 0 0 0 0 0 0 0 0 0 0 0.04 0"/>
<feBlend mode="normal" in2="effect1_dropShadow_127_3529" result="effect2_dropShadow_127_3529"/>
<feBlend mode="normal" in="SourceGraphic" in2="effect2_dropShadow_127_3529" result="shape"/>
</filter>
<filter id="filter7_dd_127_3529" x="200.045" y="180.199" width="51.8353" height="35.6516" filterUnits="userSpaceOnUse" color-interpolation-filters="sRGB">
<feFlood flood-opacity="0" result="BackgroundImageFix"/>
<feColorMatrix in="SourceAlpha" type="matrix" values="0 0 0 0 0 0 0 0 0 0 0 0 0 0 0 0 0 0 127 0" result="hardAlpha"/>
<feOffset dy="4"/>
<feGaussianBlur stdDeviation="4"/>
<feColorMatrix type="matrix" values="0 0 0 0 0 0 0 0 0 0 0 0 0 0 0 0 0 0 0.08 0"/>
<feBlend mode="normal" in2="BackgroundImageFix" result="effect1_dropShadow_127_3529"/>
<feColorMatrix in="SourceAlpha" type="matrix" values="0 0 0 0 0 0 0 0 0 0 0 0 0 0 0 0 0 0 127 0" result="hardAlpha"/>
<feOffset/>
<feGaussianBlur stdDeviation="2"/>
<feColorMatrix type="matrix" values="0 0 0 0 0 0 0 0 0 0 0 0 0 0 0 0 0 0 0.04 0"/>
<feBlend mode="normal" in2="effect1_dropShadow_127_3529" result="effect2_dropShadow_127_3529"/>
<feBlend mode="normal" in="SourceGraphic" in2="effect2_dropShadow_127_3529" result="shape"/>
</filter>
<linearGradient id="paint0_linear_127_3529" x1="175.678" y1="263.961" x2="175.678" y2="281.012" gradientUnits="userSpaceOnUse">
<stop stop-color="#DDE3F2"/>
<stop offset="1" stop-color="#DDE3F2" stop-opacity="0"/>
</linearGradient>
<linearGradient id="paint1_linear_127_3529" x1="63.9492" y1="205.633" x2="108.685" y2="205.633" gradientUnits="userSpaceOnUse">
<stop stop-color="#EEBE4A"/>
<stop offset="1" stop-color="#EAC05A" stop-opacity="0"/>
</linearGradient>
<linearGradient id="paint2_linear_127_3529" x1="66.2433" y1="196.252" x2="110.979" y2="196.252" gradientUnits="userSpaceOnUse">
<stop stop-color="#EEBE4A"/>
<stop offset="1" stop-color="#EAC05A" stop-opacity="0"/>
</linearGradient>
<linearGradient id="paint3_linear_127_3529" x1="276.248" y1="217.296" x2="321.331" y2="217.296" gradientUnits="userSpaceOnUse">
<stop stop-color="#EEBE4A"/>
<stop offset="1" stop-color="#EAC05A" stop-opacity="0"/>
</linearGradient>
<linearGradient id="paint4_linear_127_3529" x1="279.138" y1="226.915" x2="324.221" y2="226.915" gradientUnits="userSpaceOnUse">
<stop stop-color="#EEBE4A"/>
<stop offset="1" stop-color="#EAC05A" stop-opacity="0"/>
</linearGradient>
<linearGradient id="paint5_linear_127_3529" x1="276.248" y1="236.369" x2="321.331" y2="236.369" gradientUnits="userSpaceOnUse">
<stop stop-color="#EEBE4A"/>
<stop offset="1" stop-color="#EAC05A" stop-opacity="0"/>
</linearGradient>
<linearGradient id="paint6_linear_127_3529" x1="275.67" y1="264.691" x2="320.753" y2="264.691" gradientUnits="userSpaceOnUse">
<stop stop-color="#EEBE4A"/>
<stop offset="1" stop-color="#EAC05A" stop-opacity="0"/>
</linearGradient>
<linearGradient id="paint7_linear_127_3529" x1="279.138" y1="245.617" x2="324.221" y2="245.617" gradientUnits="userSpaceOnUse">
<stop stop-color="#EEBE4A"/>
<stop offset="1" stop-color="#EAC05A" stop-opacity="0"/>
</linearGradient>
<linearGradient id="paint8_linear_127_3529" x1="277.981" y1="255.237" x2="323.065" y2="255.237" gradientUnits="userSpaceOnUse">
<stop stop-color="#EEBE4A"/>
<stop offset="1" stop-color="#EAC05A" stop-opacity="0"/>
</linearGradient>
<linearGradient id="paint9_linear_127_3529" x1="19.1013" y1="245.053" x2="64.1844" y2="245.053" gradientUnits="userSpaceOnUse">
<stop stop-color="#EEBE4A"/>
<stop offset="1" stop-color="#EAC05A" stop-opacity="0"/>
</linearGradient>
<linearGradient id="paint10_linear_127_3529" x1="21.9912" y1="254.673" x2="67.0743" y2="254.673" gradientUnits="userSpaceOnUse">
<stop stop-color="#EEBE4A"/>
<stop offset="1" stop-color="#EAC05A" stop-opacity="0"/>
</linearGradient>
<linearGradient id="paint11_linear_127_3529" x1="19.1013" y1="264.127" x2="64.1844" y2="264.127" gradientUnits="userSpaceOnUse">
<stop stop-color="#EEBE4A"/>
<stop offset="1" stop-color="#EAC05A" stop-opacity="0"/>
</linearGradient>
<linearGradient id="paint12_linear_127_3529" x1="122.856" y1="55.0186" x2="122.792" y2="60.5094" gradientUnits="userSpaceOnUse">
<stop stop-color="#DBA17A"/>
<stop offset="1" stop-color="#F5C799"/>
</linearGradient>
<linearGradient id="paint13_linear_127_3529" x1="113.027" y1="79.9595" x2="124.079" y2="116.122" gradientUnits="userSpaceOnUse">
<stop stop-color="#0F5DBB"/>
<stop offset="1" stop-color="#0D52A5" stop-opacity="0"/>
</linearGradient>
<linearGradient id="paint14_linear_127_3529" x1="133.756" y1="77.673" x2="141.618" y2="94.4997" gradientUnits="userSpaceOnUse">
<stop stop-color="#0F5DBB"/>
<stop offset="1" stop-color="#0D52A5" stop-opacity="0"/>
</linearGradient>
<linearGradient id="paint15_linear_127_3529" x1="121.83" y1="77.034" x2="116.084" y2="108.425" gradientUnits="userSpaceOnUse">
<stop stop-color="#0F5DBB"/>
<stop offset="1" stop-color="#0D52A5" stop-opacity="0"/>
</linearGradient>
<linearGradient id="paint16_linear_127_3529" x1="145.044" y1="97.7397" x2="158.316" y2="102.498" gradientUnits="userSpaceOnUse">
<stop stop-color="#0F5DBB"/>
<stop offset="1" stop-color="#0D52A5" stop-opacity="0"/>
</linearGradient>
<clipPath id="clip0_127_3529">
<rect width="108.662" height="147.965" fill="white" transform="translate(259.486 89.9871)"/>
</clipPath>
<clipPath id="clip1_127_3529">
<rect width="86.7627" height="118.145" fill="white" transform="matrix(-0.999957 0.00926642 0.00926642 0.999957 101.35 86.3386)"/>
</clipPath>
</defs>
</svg>
